G04 #@! TF.GenerationSoftware,KiCad,Pcbnew,5.0.1-33cea8e~68~ubuntu18.04.1*
G04 #@! TF.CreationDate,2019-02-10T11:00:50+00:00*
G04 #@! TF.ProjectId,LoRa-hat,4C6F52612D6861742E6B696361645F70,rev?*
G04 #@! TF.SameCoordinates,Original*
G04 #@! TF.FileFunction,Soldermask,Bot*
G04 #@! TF.FilePolarity,Negative*
%FSLAX46Y46*%
G04 Gerber Fmt 4.6, Leading zero omitted, Abs format (unit mm)*
G04 Created by KiCad (PCBNEW 5.0.1-33cea8e~68~ubuntu18.04.1) date Sun 10 Feb 2019 11:00:50 GMT*
%MOMM*%
%LPD*%
G01*
G04 APERTURE LIST*
%ADD10C,0.100000*%
G04 APERTURE END LIST*
D10*
X89440000Y-116820000D02*
X89500000Y-141840000D01*
X132500000Y-141850000D02*
X89500000Y-141840000D01*
X132500000Y-116830000D02*
X132500000Y-141850000D01*
X132500000Y-116830000D02*
X140546356Y-116830000D01*
X81530000Y-116820000D02*
X89440000Y-116820000D01*
X81546356Y-116817611D02*
G75*
G02X78546356Y-113817611I0J3000000D01*
G01*
X143546351Y-113822847D02*
G75*
G02X140546356Y-116817611I-2999995J5236D01*
G01*
X78546356Y-63817611D02*
X78546356Y-113817611D01*
X78546356Y-63817611D02*
G75*
G02X81546356Y-60817611I3000000J0D01*
G01*
X140546356Y-60817611D02*
X81546356Y-60817611D01*
X140546356Y-60817611D02*
G75*
G02X143546356Y-63817611I0J-3000000D01*
G01*
X143546356Y-113817611D02*
X143546356Y-63817611D01*
G36*
X82313126Y-111946900D02*
X82448365Y-111973801D01*
X82628523Y-112048425D01*
X82679005Y-112069335D01*
X82703149Y-112079336D01*
X82917482Y-112222549D01*
X82932451Y-112232551D01*
X83127449Y-112427549D01*
X83127451Y-112427552D01*
X83280664Y-112656851D01*
X83382057Y-112901635D01*
X83386199Y-112911636D01*
X83440000Y-113182111D01*
X83440000Y-113457889D01*
X83386199Y-113728364D01*
X83280665Y-113983147D01*
X83127449Y-114212451D01*
X82932451Y-114407449D01*
X82932448Y-114407451D01*
X82703149Y-114560664D01*
X82448365Y-114666199D01*
X82313127Y-114693099D01*
X82177889Y-114720000D01*
X81902111Y-114720000D01*
X81766873Y-114693099D01*
X81631635Y-114666199D01*
X81376851Y-114560664D01*
X81147552Y-114407451D01*
X81147549Y-114407449D01*
X80952551Y-114212451D01*
X80799335Y-113983147D01*
X80693801Y-113728364D01*
X80640000Y-113457889D01*
X80640000Y-113182111D01*
X80693801Y-112911636D01*
X80697944Y-112901635D01*
X80799336Y-112656851D01*
X80952549Y-112427552D01*
X80952551Y-112427549D01*
X81147549Y-112232551D01*
X81162518Y-112222549D01*
X81376851Y-112079336D01*
X81400996Y-112069335D01*
X81451477Y-112048425D01*
X81631635Y-111973801D01*
X81766874Y-111946900D01*
X81902111Y-111920000D01*
X82177889Y-111920000D01*
X82313126Y-111946900D01*
X82313126Y-111946900D01*
G37*
G36*
X140218162Y-111920000D02*
X140438365Y-111963801D01*
X140693149Y-112069336D01*
X140708115Y-112079336D01*
X140922451Y-112222551D01*
X141117449Y-112417549D01*
X141117451Y-112417552D01*
X141270664Y-112646851D01*
X141376199Y-112901635D01*
X141430000Y-113172112D01*
X141430000Y-113447888D01*
X141376199Y-113718365D01*
X141270664Y-113973149D01*
X141263982Y-113983149D01*
X141117449Y-114202451D01*
X140922451Y-114397449D01*
X140922448Y-114397451D01*
X140693149Y-114550664D01*
X140693148Y-114550665D01*
X140693147Y-114550665D01*
X140618523Y-114581575D01*
X140438365Y-114656199D01*
X140388091Y-114666199D01*
X140167889Y-114710000D01*
X139892111Y-114710000D01*
X139671909Y-114666199D01*
X139621635Y-114656199D01*
X139441477Y-114581575D01*
X139366853Y-114550665D01*
X139366852Y-114550665D01*
X139366851Y-114550664D01*
X139137552Y-114397451D01*
X139137549Y-114397449D01*
X138942551Y-114202451D01*
X138796018Y-113983149D01*
X138789336Y-113973149D01*
X138683801Y-113718365D01*
X138630000Y-113447888D01*
X138630000Y-113172112D01*
X138683801Y-112901635D01*
X138789336Y-112646851D01*
X138942549Y-112417552D01*
X138942551Y-112417549D01*
X139137549Y-112222551D01*
X139351885Y-112079336D01*
X139366851Y-112069336D01*
X139621635Y-111963801D01*
X139841838Y-111920000D01*
X139892111Y-111910000D01*
X140167889Y-111910000D01*
X140218162Y-111920000D01*
X140218162Y-111920000D01*
G37*
G36*
X127646448Y-64666873D02*
X127716232Y-64673746D01*
X127805770Y-64700907D01*
X127895309Y-64728068D01*
X128060347Y-64816283D01*
X128205001Y-64934999D01*
X128323717Y-65079653D01*
X128411932Y-65244691D01*
X128411932Y-65244692D01*
X128464338Y-65417451D01*
X128466254Y-65423769D01*
X128484596Y-65610000D01*
X128466254Y-65796231D01*
X128411932Y-65975309D01*
X128323717Y-66140347D01*
X128205001Y-66285001D01*
X128060347Y-66403717D01*
X127895309Y-66491932D01*
X127805770Y-66519093D01*
X127716232Y-66546254D01*
X127646448Y-66553127D01*
X127576666Y-66560000D01*
X127483334Y-66560000D01*
X127413552Y-66553127D01*
X127343768Y-66546254D01*
X127254230Y-66519093D01*
X127164691Y-66491932D01*
X126999653Y-66403717D01*
X126854999Y-66285001D01*
X126736283Y-66140347D01*
X126648068Y-65975309D01*
X126593746Y-65796231D01*
X126575404Y-65610000D01*
X126593746Y-65423769D01*
X126595663Y-65417451D01*
X126648068Y-65244692D01*
X126648068Y-65244691D01*
X126736283Y-65079653D01*
X126854999Y-64934999D01*
X126999653Y-64816283D01*
X127164691Y-64728068D01*
X127254230Y-64700907D01*
X127343768Y-64673746D01*
X127413552Y-64666873D01*
X127483334Y-64660000D01*
X127576666Y-64660000D01*
X127646448Y-64666873D01*
X127646448Y-64666873D01*
G37*
G36*
X132726448Y-64666873D02*
X132796232Y-64673746D01*
X132885770Y-64700907D01*
X132975309Y-64728068D01*
X133140347Y-64816283D01*
X133285001Y-64934999D01*
X133403717Y-65079653D01*
X133491932Y-65244691D01*
X133491932Y-65244692D01*
X133544338Y-65417451D01*
X133546254Y-65423769D01*
X133564596Y-65610000D01*
X133546254Y-65796231D01*
X133491932Y-65975309D01*
X133403717Y-66140347D01*
X133285001Y-66285001D01*
X133140347Y-66403717D01*
X132975309Y-66491932D01*
X132885770Y-66519093D01*
X132796232Y-66546254D01*
X132726448Y-66553127D01*
X132656666Y-66560000D01*
X132563334Y-66560000D01*
X132493552Y-66553127D01*
X132423768Y-66546254D01*
X132334230Y-66519093D01*
X132244691Y-66491932D01*
X132079653Y-66403717D01*
X131934999Y-66285001D01*
X131816283Y-66140347D01*
X131728068Y-65975309D01*
X131673746Y-65796231D01*
X131655404Y-65610000D01*
X131673746Y-65423769D01*
X131675663Y-65417451D01*
X131728068Y-65244692D01*
X131728068Y-65244691D01*
X131816283Y-65079653D01*
X131934999Y-64934999D01*
X132079653Y-64816283D01*
X132244691Y-64728068D01*
X132334230Y-64700907D01*
X132423768Y-64673746D01*
X132493552Y-64666873D01*
X132563334Y-64660000D01*
X132656666Y-64660000D01*
X132726448Y-64666873D01*
X132726448Y-64666873D01*
G37*
G36*
X135266448Y-64666873D02*
X135336232Y-64673746D01*
X135425770Y-64700907D01*
X135515309Y-64728068D01*
X135680347Y-64816283D01*
X135825001Y-64934999D01*
X135943717Y-65079653D01*
X136031932Y-65244691D01*
X136031932Y-65244692D01*
X136084338Y-65417451D01*
X136086254Y-65423769D01*
X136104596Y-65610000D01*
X136086254Y-65796231D01*
X136031932Y-65975309D01*
X135943717Y-66140347D01*
X135825001Y-66285001D01*
X135680347Y-66403717D01*
X135515309Y-66491932D01*
X135425770Y-66519093D01*
X135336232Y-66546254D01*
X135266448Y-66553127D01*
X135196666Y-66560000D01*
X135103334Y-66560000D01*
X135033552Y-66553127D01*
X134963768Y-66546254D01*
X134874230Y-66519093D01*
X134784691Y-66491932D01*
X134619653Y-66403717D01*
X134474999Y-66285001D01*
X134356283Y-66140347D01*
X134268068Y-65975309D01*
X134213746Y-65796231D01*
X134195404Y-65610000D01*
X134213746Y-65423769D01*
X134215663Y-65417451D01*
X134268068Y-65244692D01*
X134268068Y-65244691D01*
X134356283Y-65079653D01*
X134474999Y-64934999D01*
X134619653Y-64816283D01*
X134784691Y-64728068D01*
X134874230Y-64700907D01*
X134963768Y-64673746D01*
X135033552Y-64666873D01*
X135103334Y-64660000D01*
X135196666Y-64660000D01*
X135266448Y-64666873D01*
X135266448Y-64666873D01*
G37*
G36*
X87840000Y-66560000D02*
X85940000Y-66560000D01*
X85940000Y-64660000D01*
X87840000Y-64660000D01*
X87840000Y-66560000D01*
X87840000Y-66560000D01*
G37*
G36*
X89546448Y-64666873D02*
X89616232Y-64673746D01*
X89705770Y-64700907D01*
X89795309Y-64728068D01*
X89960347Y-64816283D01*
X90105001Y-64934999D01*
X90223717Y-65079653D01*
X90311932Y-65244691D01*
X90311932Y-65244692D01*
X90364338Y-65417451D01*
X90366254Y-65423769D01*
X90384596Y-65610000D01*
X90366254Y-65796231D01*
X90311932Y-65975309D01*
X90223717Y-66140347D01*
X90105001Y-66285001D01*
X89960347Y-66403717D01*
X89795309Y-66491932D01*
X89705770Y-66519093D01*
X89616232Y-66546254D01*
X89546448Y-66553127D01*
X89476666Y-66560000D01*
X89383334Y-66560000D01*
X89313552Y-66553127D01*
X89243768Y-66546254D01*
X89154230Y-66519093D01*
X89064691Y-66491932D01*
X88899653Y-66403717D01*
X88754999Y-66285001D01*
X88636283Y-66140347D01*
X88548068Y-65975309D01*
X88493746Y-65796231D01*
X88475404Y-65610000D01*
X88493746Y-65423769D01*
X88495663Y-65417451D01*
X88548068Y-65244692D01*
X88548068Y-65244691D01*
X88636283Y-65079653D01*
X88754999Y-64934999D01*
X88899653Y-64816283D01*
X89064691Y-64728068D01*
X89154230Y-64700907D01*
X89243768Y-64673746D01*
X89313552Y-64666873D01*
X89383334Y-64660000D01*
X89476666Y-64660000D01*
X89546448Y-64666873D01*
X89546448Y-64666873D01*
G37*
G36*
X92086448Y-64666873D02*
X92156232Y-64673746D01*
X92245770Y-64700907D01*
X92335309Y-64728068D01*
X92500347Y-64816283D01*
X92645001Y-64934999D01*
X92763717Y-65079653D01*
X92851932Y-65244691D01*
X92851932Y-65244692D01*
X92904338Y-65417451D01*
X92906254Y-65423769D01*
X92924596Y-65610000D01*
X92906254Y-65796231D01*
X92851932Y-65975309D01*
X92763717Y-66140347D01*
X92645001Y-66285001D01*
X92500347Y-66403717D01*
X92335309Y-66491932D01*
X92245770Y-66519093D01*
X92156232Y-66546254D01*
X92086448Y-66553127D01*
X92016666Y-66560000D01*
X91923334Y-66560000D01*
X91853552Y-66553127D01*
X91783768Y-66546254D01*
X91694230Y-66519093D01*
X91604691Y-66491932D01*
X91439653Y-66403717D01*
X91294999Y-66285001D01*
X91176283Y-66140347D01*
X91088068Y-65975309D01*
X91033746Y-65796231D01*
X91015404Y-65610000D01*
X91033746Y-65423769D01*
X91035663Y-65417451D01*
X91088068Y-65244692D01*
X91088068Y-65244691D01*
X91176283Y-65079653D01*
X91294999Y-64934999D01*
X91439653Y-64816283D01*
X91604691Y-64728068D01*
X91694230Y-64700907D01*
X91783768Y-64673746D01*
X91853552Y-64666873D01*
X91923334Y-64660000D01*
X92016666Y-64660000D01*
X92086448Y-64666873D01*
X92086448Y-64666873D01*
G37*
G36*
X94626448Y-64666873D02*
X94696232Y-64673746D01*
X94785770Y-64700907D01*
X94875309Y-64728068D01*
X95040347Y-64816283D01*
X95185001Y-64934999D01*
X95303717Y-65079653D01*
X95391932Y-65244691D01*
X95391932Y-65244692D01*
X95444338Y-65417451D01*
X95446254Y-65423769D01*
X95464596Y-65610000D01*
X95446254Y-65796231D01*
X95391932Y-65975309D01*
X95303717Y-66140347D01*
X95185001Y-66285001D01*
X95040347Y-66403717D01*
X94875309Y-66491932D01*
X94785770Y-66519093D01*
X94696232Y-66546254D01*
X94626448Y-66553127D01*
X94556666Y-66560000D01*
X94463334Y-66560000D01*
X94393552Y-66553127D01*
X94323768Y-66546254D01*
X94234230Y-66519093D01*
X94144691Y-66491932D01*
X93979653Y-66403717D01*
X93834999Y-66285001D01*
X93716283Y-66140347D01*
X93628068Y-65975309D01*
X93573746Y-65796231D01*
X93555404Y-65610000D01*
X93573746Y-65423769D01*
X93575663Y-65417451D01*
X93628068Y-65244692D01*
X93628068Y-65244691D01*
X93716283Y-65079653D01*
X93834999Y-64934999D01*
X93979653Y-64816283D01*
X94144691Y-64728068D01*
X94234230Y-64700907D01*
X94323768Y-64673746D01*
X94393552Y-64666873D01*
X94463334Y-64660000D01*
X94556666Y-64660000D01*
X94626448Y-64666873D01*
X94626448Y-64666873D01*
G37*
G36*
X97166448Y-64666873D02*
X97236232Y-64673746D01*
X97325770Y-64700907D01*
X97415309Y-64728068D01*
X97580347Y-64816283D01*
X97725001Y-64934999D01*
X97843717Y-65079653D01*
X97931932Y-65244691D01*
X97931932Y-65244692D01*
X97984338Y-65417451D01*
X97986254Y-65423769D01*
X98004596Y-65610000D01*
X97986254Y-65796231D01*
X97931932Y-65975309D01*
X97843717Y-66140347D01*
X97725001Y-66285001D01*
X97580347Y-66403717D01*
X97415309Y-66491932D01*
X97325770Y-66519093D01*
X97236232Y-66546254D01*
X97166448Y-66553127D01*
X97096666Y-66560000D01*
X97003334Y-66560000D01*
X96933552Y-66553127D01*
X96863768Y-66546254D01*
X96774230Y-66519093D01*
X96684691Y-66491932D01*
X96519653Y-66403717D01*
X96374999Y-66285001D01*
X96256283Y-66140347D01*
X96168068Y-65975309D01*
X96113746Y-65796231D01*
X96095404Y-65610000D01*
X96113746Y-65423769D01*
X96115663Y-65417451D01*
X96168068Y-65244692D01*
X96168068Y-65244691D01*
X96256283Y-65079653D01*
X96374999Y-64934999D01*
X96519653Y-64816283D01*
X96684691Y-64728068D01*
X96774230Y-64700907D01*
X96863768Y-64673746D01*
X96933552Y-64666873D01*
X97003334Y-64660000D01*
X97096666Y-64660000D01*
X97166448Y-64666873D01*
X97166448Y-64666873D01*
G37*
G36*
X99706448Y-64666873D02*
X99776232Y-64673746D01*
X99865770Y-64700907D01*
X99955309Y-64728068D01*
X100120347Y-64816283D01*
X100265001Y-64934999D01*
X100383717Y-65079653D01*
X100471932Y-65244691D01*
X100471932Y-65244692D01*
X100524338Y-65417451D01*
X100526254Y-65423769D01*
X100544596Y-65610000D01*
X100526254Y-65796231D01*
X100471932Y-65975309D01*
X100383717Y-66140347D01*
X100265001Y-66285001D01*
X100120347Y-66403717D01*
X99955309Y-66491932D01*
X99865770Y-66519093D01*
X99776232Y-66546254D01*
X99706448Y-66553127D01*
X99636666Y-66560000D01*
X99543334Y-66560000D01*
X99473552Y-66553127D01*
X99403768Y-66546254D01*
X99314230Y-66519093D01*
X99224691Y-66491932D01*
X99059653Y-66403717D01*
X98914999Y-66285001D01*
X98796283Y-66140347D01*
X98708068Y-65975309D01*
X98653746Y-65796231D01*
X98635404Y-65610000D01*
X98653746Y-65423769D01*
X98655663Y-65417451D01*
X98708068Y-65244692D01*
X98708068Y-65244691D01*
X98796283Y-65079653D01*
X98914999Y-64934999D01*
X99059653Y-64816283D01*
X99224691Y-64728068D01*
X99314230Y-64700907D01*
X99403768Y-64673746D01*
X99473552Y-64666873D01*
X99543334Y-64660000D01*
X99636666Y-64660000D01*
X99706448Y-64666873D01*
X99706448Y-64666873D01*
G37*
G36*
X130186448Y-64666873D02*
X130256232Y-64673746D01*
X130345770Y-64700907D01*
X130435309Y-64728068D01*
X130600347Y-64816283D01*
X130745001Y-64934999D01*
X130863717Y-65079653D01*
X130951932Y-65244691D01*
X130951932Y-65244692D01*
X131004338Y-65417451D01*
X131006254Y-65423769D01*
X131024596Y-65610000D01*
X131006254Y-65796231D01*
X130951932Y-65975309D01*
X130863717Y-66140347D01*
X130745001Y-66285001D01*
X130600347Y-66403717D01*
X130435309Y-66491932D01*
X130345770Y-66519093D01*
X130256232Y-66546254D01*
X130186448Y-66553127D01*
X130116666Y-66560000D01*
X130023334Y-66560000D01*
X129953552Y-66553127D01*
X129883768Y-66546254D01*
X129794230Y-66519093D01*
X129704691Y-66491932D01*
X129539653Y-66403717D01*
X129394999Y-66285001D01*
X129276283Y-66140347D01*
X129188068Y-65975309D01*
X129133746Y-65796231D01*
X129115404Y-65610000D01*
X129133746Y-65423769D01*
X129135663Y-65417451D01*
X129188068Y-65244692D01*
X129188068Y-65244691D01*
X129276283Y-65079653D01*
X129394999Y-64934999D01*
X129539653Y-64816283D01*
X129704691Y-64728068D01*
X129794230Y-64700907D01*
X129883768Y-64673746D01*
X129953552Y-64666873D01*
X130023334Y-64660000D01*
X130116666Y-64660000D01*
X130186448Y-64666873D01*
X130186448Y-64666873D01*
G37*
G36*
X104786448Y-64666873D02*
X104856232Y-64673746D01*
X104945770Y-64700907D01*
X105035309Y-64728068D01*
X105200347Y-64816283D01*
X105345001Y-64934999D01*
X105463717Y-65079653D01*
X105551932Y-65244691D01*
X105551932Y-65244692D01*
X105604338Y-65417451D01*
X105606254Y-65423769D01*
X105624596Y-65610000D01*
X105606254Y-65796231D01*
X105551932Y-65975309D01*
X105463717Y-66140347D01*
X105345001Y-66285001D01*
X105200347Y-66403717D01*
X105035309Y-66491932D01*
X104945770Y-66519093D01*
X104856232Y-66546254D01*
X104786448Y-66553127D01*
X104716666Y-66560000D01*
X104623334Y-66560000D01*
X104553552Y-66553127D01*
X104483768Y-66546254D01*
X104394230Y-66519093D01*
X104304691Y-66491932D01*
X104139653Y-66403717D01*
X103994999Y-66285001D01*
X103876283Y-66140347D01*
X103788068Y-65975309D01*
X103733746Y-65796231D01*
X103715404Y-65610000D01*
X103733746Y-65423769D01*
X103735663Y-65417451D01*
X103788068Y-65244692D01*
X103788068Y-65244691D01*
X103876283Y-65079653D01*
X103994999Y-64934999D01*
X104139653Y-64816283D01*
X104304691Y-64728068D01*
X104394230Y-64700907D01*
X104483768Y-64673746D01*
X104553552Y-64666873D01*
X104623334Y-64660000D01*
X104716666Y-64660000D01*
X104786448Y-64666873D01*
X104786448Y-64666873D01*
G37*
G36*
X107326448Y-64666873D02*
X107396232Y-64673746D01*
X107485770Y-64700907D01*
X107575309Y-64728068D01*
X107740347Y-64816283D01*
X107885001Y-64934999D01*
X108003717Y-65079653D01*
X108091932Y-65244691D01*
X108091932Y-65244692D01*
X108144338Y-65417451D01*
X108146254Y-65423769D01*
X108164596Y-65610000D01*
X108146254Y-65796231D01*
X108091932Y-65975309D01*
X108003717Y-66140347D01*
X107885001Y-66285001D01*
X107740347Y-66403717D01*
X107575309Y-66491932D01*
X107485770Y-66519093D01*
X107396232Y-66546254D01*
X107326448Y-66553127D01*
X107256666Y-66560000D01*
X107163334Y-66560000D01*
X107093552Y-66553127D01*
X107023768Y-66546254D01*
X106934230Y-66519093D01*
X106844691Y-66491932D01*
X106679653Y-66403717D01*
X106534999Y-66285001D01*
X106416283Y-66140347D01*
X106328068Y-65975309D01*
X106273746Y-65796231D01*
X106255404Y-65610000D01*
X106273746Y-65423769D01*
X106275663Y-65417451D01*
X106328068Y-65244692D01*
X106328068Y-65244691D01*
X106416283Y-65079653D01*
X106534999Y-64934999D01*
X106679653Y-64816283D01*
X106844691Y-64728068D01*
X106934230Y-64700907D01*
X107023768Y-64673746D01*
X107093552Y-64666873D01*
X107163334Y-64660000D01*
X107256666Y-64660000D01*
X107326448Y-64666873D01*
X107326448Y-64666873D01*
G37*
G36*
X109866448Y-64666873D02*
X109936232Y-64673746D01*
X110025770Y-64700907D01*
X110115309Y-64728068D01*
X110280347Y-64816283D01*
X110425001Y-64934999D01*
X110543717Y-65079653D01*
X110631932Y-65244691D01*
X110631932Y-65244692D01*
X110684338Y-65417451D01*
X110686254Y-65423769D01*
X110704596Y-65610000D01*
X110686254Y-65796231D01*
X110631932Y-65975309D01*
X110543717Y-66140347D01*
X110425001Y-66285001D01*
X110280347Y-66403717D01*
X110115309Y-66491932D01*
X110025770Y-66519093D01*
X109936232Y-66546254D01*
X109866448Y-66553127D01*
X109796666Y-66560000D01*
X109703334Y-66560000D01*
X109633552Y-66553127D01*
X109563768Y-66546254D01*
X109474230Y-66519093D01*
X109384691Y-66491932D01*
X109219653Y-66403717D01*
X109074999Y-66285001D01*
X108956283Y-66140347D01*
X108868068Y-65975309D01*
X108813746Y-65796231D01*
X108795404Y-65610000D01*
X108813746Y-65423769D01*
X108815663Y-65417451D01*
X108868068Y-65244692D01*
X108868068Y-65244691D01*
X108956283Y-65079653D01*
X109074999Y-64934999D01*
X109219653Y-64816283D01*
X109384691Y-64728068D01*
X109474230Y-64700907D01*
X109563768Y-64673746D01*
X109633552Y-64666873D01*
X109703334Y-64660000D01*
X109796666Y-64660000D01*
X109866448Y-64666873D01*
X109866448Y-64666873D01*
G37*
G36*
X112406448Y-64666873D02*
X112476232Y-64673746D01*
X112565770Y-64700907D01*
X112655309Y-64728068D01*
X112820347Y-64816283D01*
X112965001Y-64934999D01*
X113083717Y-65079653D01*
X113171932Y-65244691D01*
X113171932Y-65244692D01*
X113224338Y-65417451D01*
X113226254Y-65423769D01*
X113244596Y-65610000D01*
X113226254Y-65796231D01*
X113171932Y-65975309D01*
X113083717Y-66140347D01*
X112965001Y-66285001D01*
X112820347Y-66403717D01*
X112655309Y-66491932D01*
X112565770Y-66519093D01*
X112476232Y-66546254D01*
X112406448Y-66553127D01*
X112336666Y-66560000D01*
X112243334Y-66560000D01*
X112173552Y-66553127D01*
X112103768Y-66546254D01*
X112014230Y-66519093D01*
X111924691Y-66491932D01*
X111759653Y-66403717D01*
X111614999Y-66285001D01*
X111496283Y-66140347D01*
X111408068Y-65975309D01*
X111353746Y-65796231D01*
X111335404Y-65610000D01*
X111353746Y-65423769D01*
X111355663Y-65417451D01*
X111408068Y-65244692D01*
X111408068Y-65244691D01*
X111496283Y-65079653D01*
X111614999Y-64934999D01*
X111759653Y-64816283D01*
X111924691Y-64728068D01*
X112014230Y-64700907D01*
X112103768Y-64673746D01*
X112173552Y-64666873D01*
X112243334Y-64660000D01*
X112336666Y-64660000D01*
X112406448Y-64666873D01*
X112406448Y-64666873D01*
G37*
G36*
X114946448Y-64666873D02*
X115016232Y-64673746D01*
X115105770Y-64700907D01*
X115195309Y-64728068D01*
X115360347Y-64816283D01*
X115505001Y-64934999D01*
X115623717Y-65079653D01*
X115711932Y-65244691D01*
X115711932Y-65244692D01*
X115764338Y-65417451D01*
X115766254Y-65423769D01*
X115784596Y-65610000D01*
X115766254Y-65796231D01*
X115711932Y-65975309D01*
X115623717Y-66140347D01*
X115505001Y-66285001D01*
X115360347Y-66403717D01*
X115195309Y-66491932D01*
X115105770Y-66519093D01*
X115016232Y-66546254D01*
X114946448Y-66553127D01*
X114876666Y-66560000D01*
X114783334Y-66560000D01*
X114713552Y-66553127D01*
X114643768Y-66546254D01*
X114554230Y-66519093D01*
X114464691Y-66491932D01*
X114299653Y-66403717D01*
X114154999Y-66285001D01*
X114036283Y-66140347D01*
X113948068Y-65975309D01*
X113893746Y-65796231D01*
X113875404Y-65610000D01*
X113893746Y-65423769D01*
X113895663Y-65417451D01*
X113948068Y-65244692D01*
X113948068Y-65244691D01*
X114036283Y-65079653D01*
X114154999Y-64934999D01*
X114299653Y-64816283D01*
X114464691Y-64728068D01*
X114554230Y-64700907D01*
X114643768Y-64673746D01*
X114713552Y-64666873D01*
X114783334Y-64660000D01*
X114876666Y-64660000D01*
X114946448Y-64666873D01*
X114946448Y-64666873D01*
G37*
G36*
X117486448Y-64666873D02*
X117556232Y-64673746D01*
X117645770Y-64700907D01*
X117735309Y-64728068D01*
X117900347Y-64816283D01*
X118045001Y-64934999D01*
X118163717Y-65079653D01*
X118251932Y-65244691D01*
X118251932Y-65244692D01*
X118304338Y-65417451D01*
X118306254Y-65423769D01*
X118324596Y-65610000D01*
X118306254Y-65796231D01*
X118251932Y-65975309D01*
X118163717Y-66140347D01*
X118045001Y-66285001D01*
X117900347Y-66403717D01*
X117735309Y-66491932D01*
X117645770Y-66519093D01*
X117556232Y-66546254D01*
X117486448Y-66553127D01*
X117416666Y-66560000D01*
X117323334Y-66560000D01*
X117253552Y-66553127D01*
X117183768Y-66546254D01*
X117094230Y-66519093D01*
X117004691Y-66491932D01*
X116839653Y-66403717D01*
X116694999Y-66285001D01*
X116576283Y-66140347D01*
X116488068Y-65975309D01*
X116433746Y-65796231D01*
X116415404Y-65610000D01*
X116433746Y-65423769D01*
X116435663Y-65417451D01*
X116488068Y-65244692D01*
X116488068Y-65244691D01*
X116576283Y-65079653D01*
X116694999Y-64934999D01*
X116839653Y-64816283D01*
X117004691Y-64728068D01*
X117094230Y-64700907D01*
X117183768Y-64673746D01*
X117253552Y-64666873D01*
X117323334Y-64660000D01*
X117416666Y-64660000D01*
X117486448Y-64666873D01*
X117486448Y-64666873D01*
G37*
G36*
X120026448Y-64666873D02*
X120096232Y-64673746D01*
X120185770Y-64700907D01*
X120275309Y-64728068D01*
X120440347Y-64816283D01*
X120585001Y-64934999D01*
X120703717Y-65079653D01*
X120791932Y-65244691D01*
X120791932Y-65244692D01*
X120844338Y-65417451D01*
X120846254Y-65423769D01*
X120864596Y-65610000D01*
X120846254Y-65796231D01*
X120791932Y-65975309D01*
X120703717Y-66140347D01*
X120585001Y-66285001D01*
X120440347Y-66403717D01*
X120275309Y-66491932D01*
X120185770Y-66519093D01*
X120096232Y-66546254D01*
X120026448Y-66553127D01*
X119956666Y-66560000D01*
X119863334Y-66560000D01*
X119793552Y-66553127D01*
X119723768Y-66546254D01*
X119634230Y-66519093D01*
X119544691Y-66491932D01*
X119379653Y-66403717D01*
X119234999Y-66285001D01*
X119116283Y-66140347D01*
X119028068Y-65975309D01*
X118973746Y-65796231D01*
X118955404Y-65610000D01*
X118973746Y-65423769D01*
X118975663Y-65417451D01*
X119028068Y-65244692D01*
X119028068Y-65244691D01*
X119116283Y-65079653D01*
X119234999Y-64934999D01*
X119379653Y-64816283D01*
X119544691Y-64728068D01*
X119634230Y-64700907D01*
X119723768Y-64673746D01*
X119793552Y-64666873D01*
X119863334Y-64660000D01*
X119956666Y-64660000D01*
X120026448Y-64666873D01*
X120026448Y-64666873D01*
G37*
G36*
X122566448Y-64666873D02*
X122636232Y-64673746D01*
X122725770Y-64700907D01*
X122815309Y-64728068D01*
X122980347Y-64816283D01*
X123125001Y-64934999D01*
X123243717Y-65079653D01*
X123331932Y-65244691D01*
X123331932Y-65244692D01*
X123384338Y-65417451D01*
X123386254Y-65423769D01*
X123404596Y-65610000D01*
X123386254Y-65796231D01*
X123331932Y-65975309D01*
X123243717Y-66140347D01*
X123125001Y-66285001D01*
X122980347Y-66403717D01*
X122815309Y-66491932D01*
X122725770Y-66519093D01*
X122636232Y-66546254D01*
X122566448Y-66553127D01*
X122496666Y-66560000D01*
X122403334Y-66560000D01*
X122333552Y-66553127D01*
X122263768Y-66546254D01*
X122174230Y-66519093D01*
X122084691Y-66491932D01*
X121919653Y-66403717D01*
X121774999Y-66285001D01*
X121656283Y-66140347D01*
X121568068Y-65975309D01*
X121513746Y-65796231D01*
X121495404Y-65610000D01*
X121513746Y-65423769D01*
X121515663Y-65417451D01*
X121568068Y-65244692D01*
X121568068Y-65244691D01*
X121656283Y-65079653D01*
X121774999Y-64934999D01*
X121919653Y-64816283D01*
X122084691Y-64728068D01*
X122174230Y-64700907D01*
X122263768Y-64673746D01*
X122333552Y-64666873D01*
X122403334Y-64660000D01*
X122496666Y-64660000D01*
X122566448Y-64666873D01*
X122566448Y-64666873D01*
G37*
G36*
X125106448Y-64666873D02*
X125176232Y-64673746D01*
X125265770Y-64700907D01*
X125355309Y-64728068D01*
X125520347Y-64816283D01*
X125665001Y-64934999D01*
X125783717Y-65079653D01*
X125871932Y-65244691D01*
X125871932Y-65244692D01*
X125924338Y-65417451D01*
X125926254Y-65423769D01*
X125944596Y-65610000D01*
X125926254Y-65796231D01*
X125871932Y-65975309D01*
X125783717Y-66140347D01*
X125665001Y-66285001D01*
X125520347Y-66403717D01*
X125355309Y-66491932D01*
X125265770Y-66519093D01*
X125176232Y-66546254D01*
X125106448Y-66553127D01*
X125036666Y-66560000D01*
X124943334Y-66560000D01*
X124873552Y-66553127D01*
X124803768Y-66546254D01*
X124714230Y-66519093D01*
X124624691Y-66491932D01*
X124459653Y-66403717D01*
X124314999Y-66285001D01*
X124196283Y-66140347D01*
X124108068Y-65975309D01*
X124053746Y-65796231D01*
X124035404Y-65610000D01*
X124053746Y-65423769D01*
X124055663Y-65417451D01*
X124108068Y-65244692D01*
X124108068Y-65244691D01*
X124196283Y-65079653D01*
X124314999Y-64934999D01*
X124459653Y-64816283D01*
X124624691Y-64728068D01*
X124714230Y-64700907D01*
X124803768Y-64673746D01*
X124873552Y-64666873D01*
X124943334Y-64660000D01*
X125036666Y-64660000D01*
X125106448Y-64666873D01*
X125106448Y-64666873D01*
G37*
G36*
X102246448Y-64666873D02*
X102316232Y-64673746D01*
X102405770Y-64700907D01*
X102495309Y-64728068D01*
X102660347Y-64816283D01*
X102805001Y-64934999D01*
X102923717Y-65079653D01*
X103011932Y-65244691D01*
X103011932Y-65244692D01*
X103064338Y-65417451D01*
X103066254Y-65423769D01*
X103084596Y-65610000D01*
X103066254Y-65796231D01*
X103011932Y-65975309D01*
X102923717Y-66140347D01*
X102805001Y-66285001D01*
X102660347Y-66403717D01*
X102495309Y-66491932D01*
X102405770Y-66519093D01*
X102316232Y-66546254D01*
X102246448Y-66553127D01*
X102176666Y-66560000D01*
X102083334Y-66560000D01*
X102013552Y-66553127D01*
X101943768Y-66546254D01*
X101854230Y-66519093D01*
X101764691Y-66491932D01*
X101599653Y-66403717D01*
X101454999Y-66285001D01*
X101336283Y-66140347D01*
X101248068Y-65975309D01*
X101193746Y-65796231D01*
X101175404Y-65610000D01*
X101193746Y-65423769D01*
X101195663Y-65417451D01*
X101248068Y-65244692D01*
X101248068Y-65244691D01*
X101336283Y-65079653D01*
X101454999Y-64934999D01*
X101599653Y-64816283D01*
X101764691Y-64728068D01*
X101854230Y-64700907D01*
X101943768Y-64673746D01*
X102013552Y-64666873D01*
X102083334Y-64660000D01*
X102176666Y-64660000D01*
X102246448Y-64666873D01*
X102246448Y-64666873D01*
G37*
G36*
X140313126Y-62956900D02*
X140448365Y-62983801D01*
X140703149Y-63089336D01*
X140902516Y-63222549D01*
X140932451Y-63242551D01*
X141127449Y-63437549D01*
X141127451Y-63437552D01*
X141280664Y-63666851D01*
X141386199Y-63921635D01*
X141440000Y-64192112D01*
X141440000Y-64467888D01*
X141386199Y-64738365D01*
X141353924Y-64816283D01*
X141280665Y-64993147D01*
X141127449Y-65222451D01*
X140932451Y-65417449D01*
X140932448Y-65417451D01*
X140703149Y-65570664D01*
X140448365Y-65676199D01*
X140313126Y-65703100D01*
X140177889Y-65730000D01*
X139902111Y-65730000D01*
X139766874Y-65703100D01*
X139631635Y-65676199D01*
X139376851Y-65570664D01*
X139147552Y-65417451D01*
X139147549Y-65417449D01*
X138952551Y-65222451D01*
X138799335Y-64993147D01*
X138726076Y-64816283D01*
X138693801Y-64738365D01*
X138640000Y-64467888D01*
X138640000Y-64192112D01*
X138693801Y-63921635D01*
X138799336Y-63666851D01*
X138952549Y-63437552D01*
X138952551Y-63437549D01*
X139147549Y-63242551D01*
X139177484Y-63222549D01*
X139376851Y-63089336D01*
X139631635Y-62983801D01*
X139766874Y-62956900D01*
X139902111Y-62930000D01*
X140177889Y-62930000D01*
X140313126Y-62956900D01*
X140313126Y-62956900D01*
G37*
G36*
X82278435Y-62930000D02*
X82448365Y-62963801D01*
X82703149Y-63069336D01*
X82733081Y-63089336D01*
X82932451Y-63222551D01*
X83127449Y-63417549D01*
X83127451Y-63417552D01*
X83280664Y-63646851D01*
X83386199Y-63901635D01*
X83440000Y-64172112D01*
X83440000Y-64447888D01*
X83386199Y-64718365D01*
X83280664Y-64973149D01*
X83267300Y-64993149D01*
X83127449Y-65202451D01*
X82932451Y-65397449D01*
X82932448Y-65397451D01*
X82703149Y-65550664D01*
X82448365Y-65656199D01*
X82347818Y-65676199D01*
X82177889Y-65710000D01*
X81902111Y-65710000D01*
X81732182Y-65676199D01*
X81631635Y-65656199D01*
X81376851Y-65550664D01*
X81147552Y-65397451D01*
X81147549Y-65397449D01*
X80952551Y-65202451D01*
X80812700Y-64993149D01*
X80799336Y-64973149D01*
X80693801Y-64718365D01*
X80640000Y-64447888D01*
X80640000Y-64172112D01*
X80693801Y-63901635D01*
X80799336Y-63646851D01*
X80952549Y-63417552D01*
X80952551Y-63417549D01*
X81147549Y-63222551D01*
X81346919Y-63089336D01*
X81376851Y-63069336D01*
X81631635Y-62963801D01*
X81801565Y-62930000D01*
X81902111Y-62910000D01*
X82177889Y-62910000D01*
X82278435Y-62930000D01*
X82278435Y-62930000D01*
G37*
G36*
X135266448Y-62126873D02*
X135336232Y-62133746D01*
X135425770Y-62160907D01*
X135515309Y-62188068D01*
X135680347Y-62276283D01*
X135825001Y-62394999D01*
X135943717Y-62539653D01*
X136031932Y-62704691D01*
X136086254Y-62883769D01*
X136104596Y-63070000D01*
X136086254Y-63256231D01*
X136031932Y-63435309D01*
X135943717Y-63600347D01*
X135825001Y-63745001D01*
X135680347Y-63863717D01*
X135515309Y-63951932D01*
X135425770Y-63979093D01*
X135336232Y-64006254D01*
X135266448Y-64013127D01*
X135196666Y-64020000D01*
X135103334Y-64020000D01*
X135033552Y-64013127D01*
X134963768Y-64006254D01*
X134874230Y-63979093D01*
X134784691Y-63951932D01*
X134619653Y-63863717D01*
X134474999Y-63745001D01*
X134356283Y-63600347D01*
X134268068Y-63435309D01*
X134213746Y-63256231D01*
X134195404Y-63070000D01*
X134213746Y-62883769D01*
X134268068Y-62704691D01*
X134356283Y-62539653D01*
X134474999Y-62394999D01*
X134619653Y-62276283D01*
X134784691Y-62188068D01*
X134874230Y-62160907D01*
X134963768Y-62133746D01*
X135033552Y-62126873D01*
X135103334Y-62120000D01*
X135196666Y-62120000D01*
X135266448Y-62126873D01*
X135266448Y-62126873D01*
G37*
G36*
X107326448Y-62126873D02*
X107396232Y-62133746D01*
X107485770Y-62160907D01*
X107575309Y-62188068D01*
X107740347Y-62276283D01*
X107885001Y-62394999D01*
X108003717Y-62539653D01*
X108091932Y-62704691D01*
X108146254Y-62883769D01*
X108164596Y-63070000D01*
X108146254Y-63256231D01*
X108091932Y-63435309D01*
X108003717Y-63600347D01*
X107885001Y-63745001D01*
X107740347Y-63863717D01*
X107575309Y-63951932D01*
X107485770Y-63979093D01*
X107396232Y-64006254D01*
X107326448Y-64013127D01*
X107256666Y-64020000D01*
X107163334Y-64020000D01*
X107093552Y-64013127D01*
X107023768Y-64006254D01*
X106934230Y-63979093D01*
X106844691Y-63951932D01*
X106679653Y-63863717D01*
X106534999Y-63745001D01*
X106416283Y-63600347D01*
X106328068Y-63435309D01*
X106273746Y-63256231D01*
X106255404Y-63070000D01*
X106273746Y-62883769D01*
X106328068Y-62704691D01*
X106416283Y-62539653D01*
X106534999Y-62394999D01*
X106679653Y-62276283D01*
X106844691Y-62188068D01*
X106934230Y-62160907D01*
X107023768Y-62133746D01*
X107093552Y-62126873D01*
X107163334Y-62120000D01*
X107256666Y-62120000D01*
X107326448Y-62126873D01*
X107326448Y-62126873D01*
G37*
G36*
X104786448Y-62126873D02*
X104856232Y-62133746D01*
X104945770Y-62160907D01*
X105035309Y-62188068D01*
X105200347Y-62276283D01*
X105345001Y-62394999D01*
X105463717Y-62539653D01*
X105551932Y-62704691D01*
X105606254Y-62883769D01*
X105624596Y-63070000D01*
X105606254Y-63256231D01*
X105551932Y-63435309D01*
X105463717Y-63600347D01*
X105345001Y-63745001D01*
X105200347Y-63863717D01*
X105035309Y-63951932D01*
X104945770Y-63979093D01*
X104856232Y-64006254D01*
X104786448Y-64013127D01*
X104716666Y-64020000D01*
X104623334Y-64020000D01*
X104553552Y-64013127D01*
X104483768Y-64006254D01*
X104394230Y-63979093D01*
X104304691Y-63951932D01*
X104139653Y-63863717D01*
X103994999Y-63745001D01*
X103876283Y-63600347D01*
X103788068Y-63435309D01*
X103733746Y-63256231D01*
X103715404Y-63070000D01*
X103733746Y-62883769D01*
X103788068Y-62704691D01*
X103876283Y-62539653D01*
X103994999Y-62394999D01*
X104139653Y-62276283D01*
X104304691Y-62188068D01*
X104394230Y-62160907D01*
X104483768Y-62133746D01*
X104553552Y-62126873D01*
X104623334Y-62120000D01*
X104716666Y-62120000D01*
X104786448Y-62126873D01*
X104786448Y-62126873D01*
G37*
G36*
X109866448Y-62126873D02*
X109936232Y-62133746D01*
X110025770Y-62160907D01*
X110115309Y-62188068D01*
X110280347Y-62276283D01*
X110425001Y-62394999D01*
X110543717Y-62539653D01*
X110631932Y-62704691D01*
X110686254Y-62883769D01*
X110704596Y-63070000D01*
X110686254Y-63256231D01*
X110631932Y-63435309D01*
X110543717Y-63600347D01*
X110425001Y-63745001D01*
X110280347Y-63863717D01*
X110115309Y-63951932D01*
X110025770Y-63979093D01*
X109936232Y-64006254D01*
X109866448Y-64013127D01*
X109796666Y-64020000D01*
X109703334Y-64020000D01*
X109633552Y-64013127D01*
X109563768Y-64006254D01*
X109474230Y-63979093D01*
X109384691Y-63951932D01*
X109219653Y-63863717D01*
X109074999Y-63745001D01*
X108956283Y-63600347D01*
X108868068Y-63435309D01*
X108813746Y-63256231D01*
X108795404Y-63070000D01*
X108813746Y-62883769D01*
X108868068Y-62704691D01*
X108956283Y-62539653D01*
X109074999Y-62394999D01*
X109219653Y-62276283D01*
X109384691Y-62188068D01*
X109474230Y-62160907D01*
X109563768Y-62133746D01*
X109633552Y-62126873D01*
X109703334Y-62120000D01*
X109796666Y-62120000D01*
X109866448Y-62126873D01*
X109866448Y-62126873D01*
G37*
G36*
X102246448Y-62126873D02*
X102316232Y-62133746D01*
X102405770Y-62160907D01*
X102495309Y-62188068D01*
X102660347Y-62276283D01*
X102805001Y-62394999D01*
X102923717Y-62539653D01*
X103011932Y-62704691D01*
X103066254Y-62883769D01*
X103084596Y-63070000D01*
X103066254Y-63256231D01*
X103011932Y-63435309D01*
X102923717Y-63600347D01*
X102805001Y-63745001D01*
X102660347Y-63863717D01*
X102495309Y-63951932D01*
X102405770Y-63979093D01*
X102316232Y-64006254D01*
X102246448Y-64013127D01*
X102176666Y-64020000D01*
X102083334Y-64020000D01*
X102013552Y-64013127D01*
X101943768Y-64006254D01*
X101854230Y-63979093D01*
X101764691Y-63951932D01*
X101599653Y-63863717D01*
X101454999Y-63745001D01*
X101336283Y-63600347D01*
X101248068Y-63435309D01*
X101193746Y-63256231D01*
X101175404Y-63070000D01*
X101193746Y-62883769D01*
X101248068Y-62704691D01*
X101336283Y-62539653D01*
X101454999Y-62394999D01*
X101599653Y-62276283D01*
X101764691Y-62188068D01*
X101854230Y-62160907D01*
X101943768Y-62133746D01*
X102013552Y-62126873D01*
X102083334Y-62120000D01*
X102176666Y-62120000D01*
X102246448Y-62126873D01*
X102246448Y-62126873D01*
G37*
G36*
X99706448Y-62126873D02*
X99776232Y-62133746D01*
X99865770Y-62160907D01*
X99955309Y-62188068D01*
X100120347Y-62276283D01*
X100265001Y-62394999D01*
X100383717Y-62539653D01*
X100471932Y-62704691D01*
X100526254Y-62883769D01*
X100544596Y-63070000D01*
X100526254Y-63256231D01*
X100471932Y-63435309D01*
X100383717Y-63600347D01*
X100265001Y-63745001D01*
X100120347Y-63863717D01*
X99955309Y-63951932D01*
X99865770Y-63979093D01*
X99776232Y-64006254D01*
X99706448Y-64013127D01*
X99636666Y-64020000D01*
X99543334Y-64020000D01*
X99473552Y-64013127D01*
X99403768Y-64006254D01*
X99314230Y-63979093D01*
X99224691Y-63951932D01*
X99059653Y-63863717D01*
X98914999Y-63745001D01*
X98796283Y-63600347D01*
X98708068Y-63435309D01*
X98653746Y-63256231D01*
X98635404Y-63070000D01*
X98653746Y-62883769D01*
X98708068Y-62704691D01*
X98796283Y-62539653D01*
X98914999Y-62394999D01*
X99059653Y-62276283D01*
X99224691Y-62188068D01*
X99314230Y-62160907D01*
X99403768Y-62133746D01*
X99473552Y-62126873D01*
X99543334Y-62120000D01*
X99636666Y-62120000D01*
X99706448Y-62126873D01*
X99706448Y-62126873D01*
G37*
G36*
X94626448Y-62126873D02*
X94696232Y-62133746D01*
X94785770Y-62160907D01*
X94875309Y-62188068D01*
X95040347Y-62276283D01*
X95185001Y-62394999D01*
X95303717Y-62539653D01*
X95391932Y-62704691D01*
X95446254Y-62883769D01*
X95464596Y-63070000D01*
X95446254Y-63256231D01*
X95391932Y-63435309D01*
X95303717Y-63600347D01*
X95185001Y-63745001D01*
X95040347Y-63863717D01*
X94875309Y-63951932D01*
X94785770Y-63979093D01*
X94696232Y-64006254D01*
X94626448Y-64013127D01*
X94556666Y-64020000D01*
X94463334Y-64020000D01*
X94393552Y-64013127D01*
X94323768Y-64006254D01*
X94234230Y-63979093D01*
X94144691Y-63951932D01*
X93979653Y-63863717D01*
X93834999Y-63745001D01*
X93716283Y-63600347D01*
X93628068Y-63435309D01*
X93573746Y-63256231D01*
X93555404Y-63070000D01*
X93573746Y-62883769D01*
X93628068Y-62704691D01*
X93716283Y-62539653D01*
X93834999Y-62394999D01*
X93979653Y-62276283D01*
X94144691Y-62188068D01*
X94234230Y-62160907D01*
X94323768Y-62133746D01*
X94393552Y-62126873D01*
X94463334Y-62120000D01*
X94556666Y-62120000D01*
X94626448Y-62126873D01*
X94626448Y-62126873D01*
G37*
G36*
X87006448Y-62126873D02*
X87076232Y-62133746D01*
X87165770Y-62160907D01*
X87255309Y-62188068D01*
X87420347Y-62276283D01*
X87565001Y-62394999D01*
X87683717Y-62539653D01*
X87771932Y-62704691D01*
X87826254Y-62883769D01*
X87844596Y-63070000D01*
X87826254Y-63256231D01*
X87771932Y-63435309D01*
X87683717Y-63600347D01*
X87565001Y-63745001D01*
X87420347Y-63863717D01*
X87255309Y-63951932D01*
X87165770Y-63979093D01*
X87076232Y-64006254D01*
X87006448Y-64013127D01*
X86936666Y-64020000D01*
X86843334Y-64020000D01*
X86773552Y-64013127D01*
X86703768Y-64006254D01*
X86614230Y-63979093D01*
X86524691Y-63951932D01*
X86359653Y-63863717D01*
X86214999Y-63745001D01*
X86096283Y-63600347D01*
X86008068Y-63435309D01*
X85953746Y-63256231D01*
X85935404Y-63070000D01*
X85953746Y-62883769D01*
X86008068Y-62704691D01*
X86096283Y-62539653D01*
X86214999Y-62394999D01*
X86359653Y-62276283D01*
X86524691Y-62188068D01*
X86614230Y-62160907D01*
X86703768Y-62133746D01*
X86773552Y-62126873D01*
X86843334Y-62120000D01*
X86936666Y-62120000D01*
X87006448Y-62126873D01*
X87006448Y-62126873D01*
G37*
G36*
X92086448Y-62126873D02*
X92156232Y-62133746D01*
X92245770Y-62160907D01*
X92335309Y-62188068D01*
X92500347Y-62276283D01*
X92645001Y-62394999D01*
X92763717Y-62539653D01*
X92851932Y-62704691D01*
X92906254Y-62883769D01*
X92924596Y-63070000D01*
X92906254Y-63256231D01*
X92851932Y-63435309D01*
X92763717Y-63600347D01*
X92645001Y-63745001D01*
X92500347Y-63863717D01*
X92335309Y-63951932D01*
X92245770Y-63979093D01*
X92156232Y-64006254D01*
X92086448Y-64013127D01*
X92016666Y-64020000D01*
X91923334Y-64020000D01*
X91853552Y-64013127D01*
X91783768Y-64006254D01*
X91694230Y-63979093D01*
X91604691Y-63951932D01*
X91439653Y-63863717D01*
X91294999Y-63745001D01*
X91176283Y-63600347D01*
X91088068Y-63435309D01*
X91033746Y-63256231D01*
X91015404Y-63070000D01*
X91033746Y-62883769D01*
X91088068Y-62704691D01*
X91176283Y-62539653D01*
X91294999Y-62394999D01*
X91439653Y-62276283D01*
X91604691Y-62188068D01*
X91694230Y-62160907D01*
X91783768Y-62133746D01*
X91853552Y-62126873D01*
X91923334Y-62120000D01*
X92016666Y-62120000D01*
X92086448Y-62126873D01*
X92086448Y-62126873D01*
G37*
G36*
X89546448Y-62126873D02*
X89616232Y-62133746D01*
X89705770Y-62160907D01*
X89795309Y-62188068D01*
X89960347Y-62276283D01*
X90105001Y-62394999D01*
X90223717Y-62539653D01*
X90311932Y-62704691D01*
X90366254Y-62883769D01*
X90384596Y-63070000D01*
X90366254Y-63256231D01*
X90311932Y-63435309D01*
X90223717Y-63600347D01*
X90105001Y-63745001D01*
X89960347Y-63863717D01*
X89795309Y-63951932D01*
X89705770Y-63979093D01*
X89616232Y-64006254D01*
X89546448Y-64013127D01*
X89476666Y-64020000D01*
X89383334Y-64020000D01*
X89313552Y-64013127D01*
X89243768Y-64006254D01*
X89154230Y-63979093D01*
X89064691Y-63951932D01*
X88899653Y-63863717D01*
X88754999Y-63745001D01*
X88636283Y-63600347D01*
X88548068Y-63435309D01*
X88493746Y-63256231D01*
X88475404Y-63070000D01*
X88493746Y-62883769D01*
X88548068Y-62704691D01*
X88636283Y-62539653D01*
X88754999Y-62394999D01*
X88899653Y-62276283D01*
X89064691Y-62188068D01*
X89154230Y-62160907D01*
X89243768Y-62133746D01*
X89313552Y-62126873D01*
X89383334Y-62120000D01*
X89476666Y-62120000D01*
X89546448Y-62126873D01*
X89546448Y-62126873D01*
G37*
G36*
X97166448Y-62126873D02*
X97236232Y-62133746D01*
X97325770Y-62160907D01*
X97415309Y-62188068D01*
X97580347Y-62276283D01*
X97725001Y-62394999D01*
X97843717Y-62539653D01*
X97931932Y-62704691D01*
X97986254Y-62883769D01*
X98004596Y-63070000D01*
X97986254Y-63256231D01*
X97931932Y-63435309D01*
X97843717Y-63600347D01*
X97725001Y-63745001D01*
X97580347Y-63863717D01*
X97415309Y-63951932D01*
X97325770Y-63979093D01*
X97236232Y-64006254D01*
X97166448Y-64013127D01*
X97096666Y-64020000D01*
X97003334Y-64020000D01*
X96933552Y-64013127D01*
X96863768Y-64006254D01*
X96774230Y-63979093D01*
X96684691Y-63951932D01*
X96519653Y-63863717D01*
X96374999Y-63745001D01*
X96256283Y-63600347D01*
X96168068Y-63435309D01*
X96113746Y-63256231D01*
X96095404Y-63070000D01*
X96113746Y-62883769D01*
X96168068Y-62704691D01*
X96256283Y-62539653D01*
X96374999Y-62394999D01*
X96519653Y-62276283D01*
X96684691Y-62188068D01*
X96774230Y-62160907D01*
X96863768Y-62133746D01*
X96933552Y-62126873D01*
X97003334Y-62120000D01*
X97096666Y-62120000D01*
X97166448Y-62126873D01*
X97166448Y-62126873D01*
G37*
G36*
X132726448Y-62126873D02*
X132796232Y-62133746D01*
X132885770Y-62160907D01*
X132975309Y-62188068D01*
X133140347Y-62276283D01*
X133285001Y-62394999D01*
X133403717Y-62539653D01*
X133491932Y-62704691D01*
X133546254Y-62883769D01*
X133564596Y-63070000D01*
X133546254Y-63256231D01*
X133491932Y-63435309D01*
X133403717Y-63600347D01*
X133285001Y-63745001D01*
X133140347Y-63863717D01*
X132975309Y-63951932D01*
X132885770Y-63979093D01*
X132796232Y-64006254D01*
X132726448Y-64013127D01*
X132656666Y-64020000D01*
X132563334Y-64020000D01*
X132493552Y-64013127D01*
X132423768Y-64006254D01*
X132334230Y-63979093D01*
X132244691Y-63951932D01*
X132079653Y-63863717D01*
X131934999Y-63745001D01*
X131816283Y-63600347D01*
X131728068Y-63435309D01*
X131673746Y-63256231D01*
X131655404Y-63070000D01*
X131673746Y-62883769D01*
X131728068Y-62704691D01*
X131816283Y-62539653D01*
X131934999Y-62394999D01*
X132079653Y-62276283D01*
X132244691Y-62188068D01*
X132334230Y-62160907D01*
X132423768Y-62133746D01*
X132493552Y-62126873D01*
X132563334Y-62120000D01*
X132656666Y-62120000D01*
X132726448Y-62126873D01*
X132726448Y-62126873D01*
G37*
G36*
X127646448Y-62126873D02*
X127716232Y-62133746D01*
X127805770Y-62160907D01*
X127895309Y-62188068D01*
X128060347Y-62276283D01*
X128205001Y-62394999D01*
X128323717Y-62539653D01*
X128411932Y-62704691D01*
X128466254Y-62883769D01*
X128484596Y-63070000D01*
X128466254Y-63256231D01*
X128411932Y-63435309D01*
X128323717Y-63600347D01*
X128205001Y-63745001D01*
X128060347Y-63863717D01*
X127895309Y-63951932D01*
X127805770Y-63979093D01*
X127716232Y-64006254D01*
X127646448Y-64013127D01*
X127576666Y-64020000D01*
X127483334Y-64020000D01*
X127413552Y-64013127D01*
X127343768Y-64006254D01*
X127254230Y-63979093D01*
X127164691Y-63951932D01*
X126999653Y-63863717D01*
X126854999Y-63745001D01*
X126736283Y-63600347D01*
X126648068Y-63435309D01*
X126593746Y-63256231D01*
X126575404Y-63070000D01*
X126593746Y-62883769D01*
X126648068Y-62704691D01*
X126736283Y-62539653D01*
X126854999Y-62394999D01*
X126999653Y-62276283D01*
X127164691Y-62188068D01*
X127254230Y-62160907D01*
X127343768Y-62133746D01*
X127413552Y-62126873D01*
X127483334Y-62120000D01*
X127576666Y-62120000D01*
X127646448Y-62126873D01*
X127646448Y-62126873D01*
G37*
G36*
X125106448Y-62126873D02*
X125176232Y-62133746D01*
X125265770Y-62160907D01*
X125355309Y-62188068D01*
X125520347Y-62276283D01*
X125665001Y-62394999D01*
X125783717Y-62539653D01*
X125871932Y-62704691D01*
X125926254Y-62883769D01*
X125944596Y-63070000D01*
X125926254Y-63256231D01*
X125871932Y-63435309D01*
X125783717Y-63600347D01*
X125665001Y-63745001D01*
X125520347Y-63863717D01*
X125355309Y-63951932D01*
X125265770Y-63979093D01*
X125176232Y-64006254D01*
X125106448Y-64013127D01*
X125036666Y-64020000D01*
X124943334Y-64020000D01*
X124873552Y-64013127D01*
X124803768Y-64006254D01*
X124714230Y-63979093D01*
X124624691Y-63951932D01*
X124459653Y-63863717D01*
X124314999Y-63745001D01*
X124196283Y-63600347D01*
X124108068Y-63435309D01*
X124053746Y-63256231D01*
X124035404Y-63070000D01*
X124053746Y-62883769D01*
X124108068Y-62704691D01*
X124196283Y-62539653D01*
X124314999Y-62394999D01*
X124459653Y-62276283D01*
X124624691Y-62188068D01*
X124714230Y-62160907D01*
X124803768Y-62133746D01*
X124873552Y-62126873D01*
X124943334Y-62120000D01*
X125036666Y-62120000D01*
X125106448Y-62126873D01*
X125106448Y-62126873D01*
G37*
G36*
X122566448Y-62126873D02*
X122636232Y-62133746D01*
X122725770Y-62160907D01*
X122815309Y-62188068D01*
X122980347Y-62276283D01*
X123125001Y-62394999D01*
X123243717Y-62539653D01*
X123331932Y-62704691D01*
X123386254Y-62883769D01*
X123404596Y-63070000D01*
X123386254Y-63256231D01*
X123331932Y-63435309D01*
X123243717Y-63600347D01*
X123125001Y-63745001D01*
X122980347Y-63863717D01*
X122815309Y-63951932D01*
X122725770Y-63979093D01*
X122636232Y-64006254D01*
X122566448Y-64013127D01*
X122496666Y-64020000D01*
X122403334Y-64020000D01*
X122333552Y-64013127D01*
X122263768Y-64006254D01*
X122174230Y-63979093D01*
X122084691Y-63951932D01*
X121919653Y-63863717D01*
X121774999Y-63745001D01*
X121656283Y-63600347D01*
X121568068Y-63435309D01*
X121513746Y-63256231D01*
X121495404Y-63070000D01*
X121513746Y-62883769D01*
X121568068Y-62704691D01*
X121656283Y-62539653D01*
X121774999Y-62394999D01*
X121919653Y-62276283D01*
X122084691Y-62188068D01*
X122174230Y-62160907D01*
X122263768Y-62133746D01*
X122333552Y-62126873D01*
X122403334Y-62120000D01*
X122496666Y-62120000D01*
X122566448Y-62126873D01*
X122566448Y-62126873D01*
G37*
G36*
X114946448Y-62126873D02*
X115016232Y-62133746D01*
X115105770Y-62160907D01*
X115195309Y-62188068D01*
X115360347Y-62276283D01*
X115505001Y-62394999D01*
X115623717Y-62539653D01*
X115711932Y-62704691D01*
X115766254Y-62883769D01*
X115784596Y-63070000D01*
X115766254Y-63256231D01*
X115711932Y-63435309D01*
X115623717Y-63600347D01*
X115505001Y-63745001D01*
X115360347Y-63863717D01*
X115195309Y-63951932D01*
X115105770Y-63979093D01*
X115016232Y-64006254D01*
X114946448Y-64013127D01*
X114876666Y-64020000D01*
X114783334Y-64020000D01*
X114713552Y-64013127D01*
X114643768Y-64006254D01*
X114554230Y-63979093D01*
X114464691Y-63951932D01*
X114299653Y-63863717D01*
X114154999Y-63745001D01*
X114036283Y-63600347D01*
X113948068Y-63435309D01*
X113893746Y-63256231D01*
X113875404Y-63070000D01*
X113893746Y-62883769D01*
X113948068Y-62704691D01*
X114036283Y-62539653D01*
X114154999Y-62394999D01*
X114299653Y-62276283D01*
X114464691Y-62188068D01*
X114554230Y-62160907D01*
X114643768Y-62133746D01*
X114713552Y-62126873D01*
X114783334Y-62120000D01*
X114876666Y-62120000D01*
X114946448Y-62126873D01*
X114946448Y-62126873D01*
G37*
G36*
X120026448Y-62126873D02*
X120096232Y-62133746D01*
X120185770Y-62160907D01*
X120275309Y-62188068D01*
X120440347Y-62276283D01*
X120585001Y-62394999D01*
X120703717Y-62539653D01*
X120791932Y-62704691D01*
X120846254Y-62883769D01*
X120864596Y-63070000D01*
X120846254Y-63256231D01*
X120791932Y-63435309D01*
X120703717Y-63600347D01*
X120585001Y-63745001D01*
X120440347Y-63863717D01*
X120275309Y-63951932D01*
X120185770Y-63979093D01*
X120096232Y-64006254D01*
X120026448Y-64013127D01*
X119956666Y-64020000D01*
X119863334Y-64020000D01*
X119793552Y-64013127D01*
X119723768Y-64006254D01*
X119634230Y-63979093D01*
X119544691Y-63951932D01*
X119379653Y-63863717D01*
X119234999Y-63745001D01*
X119116283Y-63600347D01*
X119028068Y-63435309D01*
X118973746Y-63256231D01*
X118955404Y-63070000D01*
X118973746Y-62883769D01*
X119028068Y-62704691D01*
X119116283Y-62539653D01*
X119234999Y-62394999D01*
X119379653Y-62276283D01*
X119544691Y-62188068D01*
X119634230Y-62160907D01*
X119723768Y-62133746D01*
X119793552Y-62126873D01*
X119863334Y-62120000D01*
X119956666Y-62120000D01*
X120026448Y-62126873D01*
X120026448Y-62126873D01*
G37*
G36*
X112406448Y-62126873D02*
X112476232Y-62133746D01*
X112565770Y-62160907D01*
X112655309Y-62188068D01*
X112820347Y-62276283D01*
X112965001Y-62394999D01*
X113083717Y-62539653D01*
X113171932Y-62704691D01*
X113226254Y-62883769D01*
X113244596Y-63070000D01*
X113226254Y-63256231D01*
X113171932Y-63435309D01*
X113083717Y-63600347D01*
X112965001Y-63745001D01*
X112820347Y-63863717D01*
X112655309Y-63951932D01*
X112565770Y-63979093D01*
X112476232Y-64006254D01*
X112406448Y-64013127D01*
X112336666Y-64020000D01*
X112243334Y-64020000D01*
X112173552Y-64013127D01*
X112103768Y-64006254D01*
X112014230Y-63979093D01*
X111924691Y-63951932D01*
X111759653Y-63863717D01*
X111614999Y-63745001D01*
X111496283Y-63600347D01*
X111408068Y-63435309D01*
X111353746Y-63256231D01*
X111335404Y-63070000D01*
X111353746Y-62883769D01*
X111408068Y-62704691D01*
X111496283Y-62539653D01*
X111614999Y-62394999D01*
X111759653Y-62276283D01*
X111924691Y-62188068D01*
X112014230Y-62160907D01*
X112103768Y-62133746D01*
X112173552Y-62126873D01*
X112243334Y-62120000D01*
X112336666Y-62120000D01*
X112406448Y-62126873D01*
X112406448Y-62126873D01*
G37*
G36*
X117486448Y-62126873D02*
X117556232Y-62133746D01*
X117645770Y-62160907D01*
X117735309Y-62188068D01*
X117900347Y-62276283D01*
X118045001Y-62394999D01*
X118163717Y-62539653D01*
X118251932Y-62704691D01*
X118306254Y-62883769D01*
X118324596Y-63070000D01*
X118306254Y-63256231D01*
X118251932Y-63435309D01*
X118163717Y-63600347D01*
X118045001Y-63745001D01*
X117900347Y-63863717D01*
X117735309Y-63951932D01*
X117645770Y-63979093D01*
X117556232Y-64006254D01*
X117486448Y-64013127D01*
X117416666Y-64020000D01*
X117323334Y-64020000D01*
X117253552Y-64013127D01*
X117183768Y-64006254D01*
X117094230Y-63979093D01*
X117004691Y-63951932D01*
X116839653Y-63863717D01*
X116694999Y-63745001D01*
X116576283Y-63600347D01*
X116488068Y-63435309D01*
X116433746Y-63256231D01*
X116415404Y-63070000D01*
X116433746Y-62883769D01*
X116488068Y-62704691D01*
X116576283Y-62539653D01*
X116694999Y-62394999D01*
X116839653Y-62276283D01*
X117004691Y-62188068D01*
X117094230Y-62160907D01*
X117183768Y-62133746D01*
X117253552Y-62126873D01*
X117323334Y-62120000D01*
X117416666Y-62120000D01*
X117486448Y-62126873D01*
X117486448Y-62126873D01*
G37*
G36*
X130186448Y-62126873D02*
X130256232Y-62133746D01*
X130345770Y-62160907D01*
X130435309Y-62188068D01*
X130600347Y-62276283D01*
X130745001Y-62394999D01*
X130863717Y-62539653D01*
X130951932Y-62704691D01*
X131006254Y-62883769D01*
X131024596Y-63070000D01*
X131006254Y-63256231D01*
X130951932Y-63435309D01*
X130863717Y-63600347D01*
X130745001Y-63745001D01*
X130600347Y-63863717D01*
X130435309Y-63951932D01*
X130345770Y-63979093D01*
X130256232Y-64006254D01*
X130186448Y-64013127D01*
X130116666Y-64020000D01*
X130023334Y-64020000D01*
X129953552Y-64013127D01*
X129883768Y-64006254D01*
X129794230Y-63979093D01*
X129704691Y-63951932D01*
X129539653Y-63863717D01*
X129394999Y-63745001D01*
X129276283Y-63600347D01*
X129188068Y-63435309D01*
X129133746Y-63256231D01*
X129115404Y-63070000D01*
X129133746Y-62883769D01*
X129188068Y-62704691D01*
X129276283Y-62539653D01*
X129394999Y-62394999D01*
X129539653Y-62276283D01*
X129704691Y-62188068D01*
X129794230Y-62160907D01*
X129883768Y-62133746D01*
X129953552Y-62126873D01*
X130023334Y-62120000D01*
X130116666Y-62120000D01*
X130186448Y-62126873D01*
X130186448Y-62126873D01*
G37*
M02*
