G04 #@! TF.GenerationSoftware,KiCad,Pcbnew,5.0.1-33cea8e~68~ubuntu18.04.1*
G04 #@! TF.CreationDate,2019-02-10T11:00:50+00:00*
G04 #@! TF.ProjectId,LoRa-hat,4C6F52612D6861742E6B696361645F70,rev?*
G04 #@! TF.SameCoordinates,Original*
G04 #@! TF.FileFunction,Legend,Top*
G04 #@! TF.FilePolarity,Positive*
%FSLAX46Y46*%
G04 Gerber Fmt 4.6, Leading zero omitted, Abs format (unit mm)*
G04 Created by KiCad (PCBNEW 5.0.1-33cea8e~68~ubuntu18.04.1) date Sun 10 Feb 2019 11:00:50 GMT*
%MOMM*%
%LPD*%
G01*
G04 APERTURE LIST*
%ADD10C,0.100000*%
%ADD11C,0.120000*%
%ADD12C,0.150000*%
G04 APERTURE END LIST*
D10*
X138290000Y-76011904D02*
X138156666Y-75630952D01*
X138061428Y-76011904D02*
X138061428Y-75211904D01*
X138213809Y-75211904D01*
X138251904Y-75250000D01*
X138270952Y-75288095D01*
X138290000Y-75364285D01*
X138290000Y-75478571D01*
X138270952Y-75554761D01*
X138251904Y-75592857D01*
X138213809Y-75630952D01*
X138061428Y-75630952D01*
X138461428Y-75592857D02*
X138594761Y-75592857D01*
X138651904Y-76011904D02*
X138461428Y-76011904D01*
X138461428Y-75211904D01*
X138651904Y-75211904D01*
X138766190Y-75211904D02*
X138899523Y-76011904D01*
X139032857Y-75211904D01*
X139147142Y-75783333D02*
X139337619Y-75783333D01*
X139109047Y-76011904D02*
X139242380Y-75211904D01*
X139375714Y-76011904D01*
X89440000Y-116820000D02*
X89500000Y-141840000D01*
X132500000Y-141850000D02*
X89500000Y-141840000D01*
X132500000Y-116830000D02*
X132500000Y-141850000D01*
X132500000Y-116830000D02*
X140546356Y-116830000D01*
X81530000Y-116820000D02*
X89440000Y-116820000D01*
X81546356Y-116817611D02*
G75*
G02X78546356Y-113817611I0J3000000D01*
G01*
X143546351Y-113822847D02*
G75*
G02X140546356Y-116817611I-2999995J5236D01*
G01*
X136107619Y-68811904D02*
X135917142Y-68811904D01*
X135917142Y-68011904D01*
X136298095Y-68811904D02*
X136260000Y-68773809D01*
X136240952Y-68735714D01*
X136221904Y-68659523D01*
X136221904Y-68430952D01*
X136240952Y-68354761D01*
X136260000Y-68316666D01*
X136298095Y-68278571D01*
X136355238Y-68278571D01*
X136393333Y-68316666D01*
X136412380Y-68354761D01*
X136431428Y-68430952D01*
X136431428Y-68659523D01*
X136412380Y-68735714D01*
X136393333Y-68773809D01*
X136355238Y-68811904D01*
X136298095Y-68811904D01*
X136831428Y-68811904D02*
X136698095Y-68430952D01*
X136602857Y-68811904D02*
X136602857Y-68011904D01*
X136755238Y-68011904D01*
X136793333Y-68050000D01*
X136812380Y-68088095D01*
X136831428Y-68164285D01*
X136831428Y-68278571D01*
X136812380Y-68354761D01*
X136793333Y-68392857D01*
X136755238Y-68430952D01*
X136602857Y-68430952D01*
X137174285Y-68811904D02*
X137174285Y-68392857D01*
X137155238Y-68316666D01*
X137117142Y-68278571D01*
X137040952Y-68278571D01*
X137002857Y-68316666D01*
X137174285Y-68773809D02*
X137136190Y-68811904D01*
X137040952Y-68811904D01*
X137002857Y-68773809D01*
X136983809Y-68697619D01*
X136983809Y-68621428D01*
X137002857Y-68545238D01*
X137040952Y-68507142D01*
X137136190Y-68507142D01*
X137174285Y-68469047D01*
X137612380Y-68011904D02*
X137840952Y-68011904D01*
X137726666Y-68811904D02*
X137726666Y-68011904D01*
X138202857Y-68811904D02*
X138069523Y-68430952D01*
X137974285Y-68811904D02*
X137974285Y-68011904D01*
X138126666Y-68011904D01*
X138164761Y-68050000D01*
X138183809Y-68088095D01*
X138202857Y-68164285D01*
X138202857Y-68278571D01*
X138183809Y-68354761D01*
X138164761Y-68392857D01*
X138126666Y-68430952D01*
X137974285Y-68430952D01*
X138355238Y-68583333D02*
X138545714Y-68583333D01*
X138317142Y-68811904D02*
X138450476Y-68011904D01*
X138583809Y-68811904D01*
X138717142Y-68811904D02*
X138717142Y-68011904D01*
X138945714Y-68811904D01*
X138945714Y-68011904D01*
X139364761Y-68735714D02*
X139345714Y-68773809D01*
X139288571Y-68811904D01*
X139250476Y-68811904D01*
X139193333Y-68773809D01*
X139155238Y-68697619D01*
X139136190Y-68621428D01*
X139117142Y-68469047D01*
X139117142Y-68354761D01*
X139136190Y-68202380D01*
X139155238Y-68126190D01*
X139193333Y-68050000D01*
X139250476Y-68011904D01*
X139288571Y-68011904D01*
X139345714Y-68050000D01*
X139364761Y-68088095D01*
X139536190Y-68392857D02*
X139669523Y-68392857D01*
X139726666Y-68811904D02*
X139536190Y-68811904D01*
X139536190Y-68011904D01*
X139726666Y-68011904D01*
X139898095Y-68811904D02*
X139898095Y-68011904D01*
X140031428Y-68011904D02*
X140164761Y-68811904D01*
X140298095Y-68011904D01*
X140431428Y-68392857D02*
X140564761Y-68392857D01*
X140621904Y-68811904D02*
X140431428Y-68811904D01*
X140431428Y-68011904D01*
X140621904Y-68011904D01*
X141021904Y-68811904D02*
X140888571Y-68430952D01*
X140793333Y-68811904D02*
X140793333Y-68011904D01*
X140945714Y-68011904D01*
X140983809Y-68050000D01*
X141002857Y-68088095D01*
X141021904Y-68164285D01*
X141021904Y-68278571D01*
X141002857Y-68354761D01*
X140983809Y-68392857D01*
X140945714Y-68430952D01*
X140793333Y-68430952D01*
X78546356Y-63817611D02*
X78546356Y-113817611D01*
X78546356Y-63817611D02*
G75*
G02X81546356Y-60817611I3000000J0D01*
G01*
X140546356Y-60817611D02*
X81546356Y-60817611D01*
X140546356Y-60817611D02*
G75*
G02X143546356Y-63817611I0J-3000000D01*
G01*
X143546356Y-113817611D02*
X143546356Y-63817611D01*
D11*
G04 #@! TO.C,U1*
X124000000Y-99290000D02*
X124750000Y-99290000D01*
X118530000Y-93070000D02*
X118530000Y-93820000D01*
X119280000Y-93070000D02*
X118530000Y-93070000D01*
X124750000Y-93070000D02*
X124750000Y-93820000D01*
X124000000Y-93070000D02*
X124750000Y-93070000D01*
X118530000Y-99290000D02*
X118530000Y-98540000D01*
X119280000Y-99290000D02*
X118530000Y-99290000D01*
G04 #@! TO.C,R4*
X116880000Y-76610279D02*
X116880000Y-76284721D01*
X117900000Y-76610279D02*
X117900000Y-76284721D01*
G04 #@! TO.C,R7*
X121387221Y-114090000D02*
X121712779Y-114090000D01*
X121387221Y-115110000D02*
X121712779Y-115110000D01*
G04 #@! TO.C,C3*
X114705000Y-97350000D02*
X114705000Y-101260000D01*
X116575000Y-97350000D02*
X114705000Y-97350000D01*
X116575000Y-101260000D02*
X116575000Y-97350000D01*
G04 #@! TO.C,C17*
X118554721Y-107430000D02*
X118880279Y-107430000D01*
X118554721Y-106410000D02*
X118880279Y-106410000D01*
G04 #@! TO.C,L8*
X109400000Y-76324721D02*
X109400000Y-76650279D01*
X108380000Y-76324721D02*
X108380000Y-76650279D01*
G04 #@! TO.C,J2*
X133850000Y-109615000D02*
X135730000Y-109615000D01*
X133850000Y-102905000D02*
X135730000Y-102905000D01*
G04 #@! TO.C,R2*
X118872779Y-110860000D02*
X118547221Y-110860000D01*
X118872779Y-109840000D02*
X118547221Y-109840000D01*
G04 #@! TO.C,R3*
X116380000Y-76610279D02*
X116380000Y-76284721D01*
X115360000Y-76610279D02*
X115360000Y-76284721D01*
G04 #@! TO.C,R5*
X119440000Y-76635279D02*
X119440000Y-76309721D01*
X118420000Y-76635279D02*
X118420000Y-76309721D01*
G04 #@! TO.C,R6*
X113810000Y-76590279D02*
X113810000Y-76264721D01*
X114830000Y-76590279D02*
X114830000Y-76264721D01*
G04 #@! TO.C,R8*
X124750279Y-114070000D02*
X124424721Y-114070000D01*
X124750279Y-115090000D02*
X124424721Y-115090000D01*
G04 #@! TO.C,R1*
X118870279Y-108980000D02*
X118544721Y-108980000D01*
X118870279Y-107960000D02*
X118544721Y-107960000D01*
G04 #@! TO.C,Y1*
X126160000Y-93990000D02*
X126160000Y-96290000D01*
X126160000Y-96290000D02*
X128860000Y-96290000D01*
G04 #@! TO.C,L7*
X96630000Y-76299721D02*
X96630000Y-76625279D01*
X95610000Y-76299721D02*
X95610000Y-76625279D01*
G04 #@! TO.C,TP5*
X121380000Y-86730000D02*
G75*
G03X121380000Y-86730000I-700000J0D01*
G01*
G04 #@! TO.C,TP4*
X123380000Y-86730000D02*
G75*
G03X123380000Y-86730000I-700000J0D01*
G01*
G04 #@! TO.C,TP3*
X125380000Y-86730000D02*
G75*
G03X125380000Y-86730000I-700000J0D01*
G01*
G04 #@! TO.C,TP2*
X127380000Y-86730000D02*
G75*
G03X127380000Y-86730000I-700000J0D01*
G01*
G04 #@! TO.C,TP8*
X115170000Y-86700000D02*
G75*
G03X115170000Y-86700000I-700000J0D01*
G01*
G04 #@! TO.C,TP7*
X131200000Y-86700000D02*
G75*
G03X131200000Y-86700000I-700000J0D01*
G01*
G04 #@! TO.C,TP6*
X119380000Y-86730000D02*
G75*
G03X119380000Y-86730000I-700000J0D01*
G01*
G04 #@! TO.C,TP1*
X129380000Y-86730000D02*
G75*
G03X129380000Y-86730000I-700000J0D01*
G01*
G04 #@! TO.C,C2*
X91925000Y-73030000D02*
X91925000Y-69120000D01*
X91925000Y-69120000D02*
X90055000Y-69120000D01*
X90055000Y-69120000D02*
X90055000Y-73030000D01*
G04 #@! TO.C,L5*
X124730279Y-107950000D02*
X124404721Y-107950000D01*
X124730279Y-108970000D02*
X124404721Y-108970000D01*
G04 #@! TO.C,L6*
X121484721Y-112650000D02*
X121810279Y-112650000D01*
X121484721Y-113670000D02*
X121810279Y-113670000D01*
G04 #@! TO.C,L4*
X124394721Y-105980000D02*
X124720279Y-105980000D01*
X124394721Y-104960000D02*
X124720279Y-104960000D01*
G04 #@! TO.C,L3*
X118584721Y-104970000D02*
X118910279Y-104970000D01*
X118584721Y-105990000D02*
X118910279Y-105990000D01*
G04 #@! TO.C,L1*
X124377221Y-101390000D02*
X124702779Y-101390000D01*
X124377221Y-100370000D02*
X124702779Y-100370000D01*
G04 #@! TO.C,L2*
X127750279Y-104450000D02*
X127424721Y-104450000D01*
X127750279Y-103430000D02*
X127424721Y-103430000D01*
G04 #@! TO.C,C21*
X118855279Y-112650000D02*
X118529721Y-112650000D01*
X118855279Y-113670000D02*
X118529721Y-113670000D01*
G04 #@! TO.C,C22*
X124414721Y-112670000D02*
X124740279Y-112670000D01*
X124414721Y-113690000D02*
X124740279Y-113690000D01*
G04 #@! TO.C,C11*
X115945279Y-104990000D02*
X115619721Y-104990000D01*
X115945279Y-106010000D02*
X115619721Y-106010000D01*
G04 #@! TO.C,C4*
X127940000Y-92572779D02*
X127940000Y-92247221D01*
X128960000Y-92572779D02*
X128960000Y-92247221D01*
G04 #@! TO.C,C5*
X127320000Y-92582779D02*
X127320000Y-92257221D01*
X126300000Y-92582779D02*
X126300000Y-92257221D01*
G04 #@! TO.C,C6*
X117890000Y-100234721D02*
X117890000Y-100560279D01*
X116870000Y-100234721D02*
X116870000Y-100560279D01*
G04 #@! TO.C,C7*
X126310000Y-98249721D02*
X126310000Y-98575279D01*
X127330000Y-98249721D02*
X127330000Y-98575279D01*
G04 #@! TO.C,C8*
X124710279Y-102920000D02*
X124384721Y-102920000D01*
X124710279Y-101900000D02*
X124384721Y-101900000D01*
G04 #@! TO.C,C9*
X127820000Y-98249721D02*
X127820000Y-98575279D01*
X128840000Y-98249721D02*
X128840000Y-98575279D01*
G04 #@! TO.C,C10*
X124384721Y-103430000D02*
X124710279Y-103430000D01*
X124384721Y-104450000D02*
X124710279Y-104450000D01*
G04 #@! TO.C,C1*
X92350000Y-70337221D02*
X92350000Y-70662779D01*
X93370000Y-70337221D02*
X93370000Y-70662779D01*
G04 #@! TO.C,C12*
X127374721Y-101890000D02*
X127700279Y-101890000D01*
X127374721Y-102910000D02*
X127700279Y-102910000D01*
G04 #@! TO.C,C13*
X127387221Y-101370000D02*
X127712779Y-101370000D01*
X127387221Y-100350000D02*
X127712779Y-100350000D01*
G04 #@! TO.C,C14*
X121484721Y-104970000D02*
X121810279Y-104970000D01*
X121484721Y-105990000D02*
X121810279Y-105990000D01*
G04 #@! TO.C,C15*
X124732779Y-106460000D02*
X124407221Y-106460000D01*
X124732779Y-107480000D02*
X124407221Y-107480000D01*
G04 #@! TO.C,C16*
X124414721Y-111240000D02*
X124740279Y-111240000D01*
X124414721Y-112260000D02*
X124740279Y-112260000D01*
G04 #@! TO.C,C18*
X124374721Y-109860000D02*
X124700279Y-109860000D01*
X124374721Y-110880000D02*
X124700279Y-110880000D01*
G04 #@! TO.C,C19*
X118872779Y-111240000D02*
X118547221Y-111240000D01*
X118872779Y-112260000D02*
X118547221Y-112260000D01*
G04 #@! TO.C,C20*
X121477221Y-111210000D02*
X121802779Y-111210000D01*
X121477221Y-112230000D02*
X121802779Y-112230000D01*
G04 #@! TO.C,U2*
X94940000Y-73150000D02*
X93740000Y-73150000D01*
X93740000Y-73150000D02*
X93740000Y-70450000D01*
X98540000Y-69150000D02*
X98540000Y-73150000D01*
X98540000Y-73150000D02*
X97340000Y-73150000D01*
D12*
G04 #@! TO.C,H4*
X142480000Y-113310000D02*
G75*
G03X142480000Y-113310000I-2450000J0D01*
G01*
G04 #@! TO.C,H3*
X84490000Y-113320000D02*
G75*
G03X84490000Y-113320000I-2450000J0D01*
G01*
G04 #@! TO.C,H2*
X142490000Y-64330000D02*
G75*
G03X142490000Y-64330000I-2450000J0D01*
G01*
G04 #@! TO.C,H1*
X84490000Y-64310000D02*
G75*
G03X84490000Y-64310000I-2450000J0D01*
G01*
G04 #@! TO.C,(c) SDL Ltd 2018*
X137276000Y-73338000D02*
X135752000Y-73338000D01*
X138292000Y-71306000D02*
X137276000Y-73338000D01*
X139308000Y-69274000D02*
X140832000Y-69274000D01*
X138292000Y-71306000D02*
X139308000Y-69274000D01*
X141340000Y-72322000D02*
X142864000Y-72322000D01*
X140832000Y-71306000D02*
X141340000Y-72322000D01*
X141340000Y-70290000D02*
X142864000Y-70290000D01*
X140832000Y-71306000D02*
X141340000Y-70290000D01*
X135244000Y-72322000D02*
X133720000Y-72322000D01*
X135752000Y-71306000D02*
X135244000Y-72322000D01*
X135244000Y-70290000D02*
X133720000Y-70290000D01*
X135752000Y-71306000D02*
X135244000Y-70290000D01*
X135752000Y-71306000D02*
X136260000Y-70290000D01*
X136260000Y-72322000D02*
X135752000Y-71306000D01*
X140324000Y-72322000D02*
X136260000Y-72322000D01*
X140832000Y-71306000D02*
X140324000Y-72322000D01*
X140324000Y-70290000D02*
X140832000Y-71306000D01*
X136260000Y-70290000D02*
X140324000Y-70290000D01*
G04 #@! TD*
D10*
G04 #@! TO.C,H4*
X141280000Y-113310000D02*
G75*
G03X141280000Y-113310000I-1250000J0D01*
G01*
G04 #@! TD*
G04 #@! TO.C,H3*
X83290000Y-113320000D02*
G75*
G03X83290000Y-113320000I-1250000J0D01*
G01*
G04 #@! TD*
G04 #@! TO.C,H2*
X141290000Y-64330000D02*
G75*
G03X141290000Y-64330000I-1250000J0D01*
G01*
G04 #@! TD*
G04 #@! TO.C,H1*
X83290000Y-64310000D02*
G75*
G03X83290000Y-64310000I-1250000J0D01*
G01*
G04 #@! TD*
G04 #@! TO.C,U1*
X118445238Y-92011904D02*
X118445238Y-92659523D01*
X118464285Y-92735714D01*
X118483333Y-92773809D01*
X118521428Y-92811904D01*
X118597619Y-92811904D01*
X118635714Y-92773809D01*
X118654761Y-92735714D01*
X118673809Y-92659523D01*
X118673809Y-92011904D01*
X119073809Y-92811904D02*
X118845238Y-92811904D01*
X118959523Y-92811904D02*
X118959523Y-92011904D01*
X118921428Y-92126190D01*
X118883333Y-92202380D01*
X118845238Y-92240476D01*
G04 #@! TO.C,S1*
X112875238Y-88913809D02*
X112932380Y-88951904D01*
X113027619Y-88951904D01*
X113065714Y-88913809D01*
X113084761Y-88875714D01*
X113103809Y-88799523D01*
X113103809Y-88723333D01*
X113084761Y-88647142D01*
X113065714Y-88609047D01*
X113027619Y-88570952D01*
X112951428Y-88532857D01*
X112913333Y-88494761D01*
X112894285Y-88456666D01*
X112875238Y-88380476D01*
X112875238Y-88304285D01*
X112894285Y-88228095D01*
X112913333Y-88190000D01*
X112951428Y-88151904D01*
X113046666Y-88151904D01*
X113103809Y-88190000D01*
X113484761Y-88951904D02*
X113256190Y-88951904D01*
X113370476Y-88951904D02*
X113370476Y-88151904D01*
X113332380Y-88266190D01*
X113294285Y-88342380D01*
X113256190Y-88380476D01*
G04 #@! TO.C,R4*
X117333333Y-74961904D02*
X117200000Y-74580952D01*
X117104761Y-74961904D02*
X117104761Y-74161904D01*
X117257142Y-74161904D01*
X117295238Y-74200000D01*
X117314285Y-74238095D01*
X117333333Y-74314285D01*
X117333333Y-74428571D01*
X117314285Y-74504761D01*
X117295238Y-74542857D01*
X117257142Y-74580952D01*
X117104761Y-74580952D01*
X117676190Y-74428571D02*
X117676190Y-74961904D01*
X117580952Y-74123809D02*
X117485714Y-74695238D01*
X117733333Y-74695238D01*
G04 #@! TO.C,R7*
X119573333Y-114941904D02*
X119440000Y-114560952D01*
X119344761Y-114941904D02*
X119344761Y-114141904D01*
X119497142Y-114141904D01*
X119535238Y-114180000D01*
X119554285Y-114218095D01*
X119573333Y-114294285D01*
X119573333Y-114408571D01*
X119554285Y-114484761D01*
X119535238Y-114522857D01*
X119497142Y-114560952D01*
X119344761Y-114560952D01*
X119706666Y-114141904D02*
X119973333Y-114141904D01*
X119801904Y-114941904D01*
G04 #@! TO.C,C3*
X115603333Y-102795714D02*
X115584285Y-102833809D01*
X115527142Y-102871904D01*
X115489047Y-102871904D01*
X115431904Y-102833809D01*
X115393809Y-102757619D01*
X115374761Y-102681428D01*
X115355714Y-102529047D01*
X115355714Y-102414761D01*
X115374761Y-102262380D01*
X115393809Y-102186190D01*
X115431904Y-102110000D01*
X115489047Y-102071904D01*
X115527142Y-102071904D01*
X115584285Y-102110000D01*
X115603333Y-102148095D01*
X115736666Y-102071904D02*
X115984285Y-102071904D01*
X115850952Y-102376666D01*
X115908095Y-102376666D01*
X115946190Y-102414761D01*
X115965238Y-102452857D01*
X115984285Y-102529047D01*
X115984285Y-102719523D01*
X115965238Y-102795714D01*
X115946190Y-102833809D01*
X115908095Y-102871904D01*
X115793809Y-102871904D01*
X115755714Y-102833809D01*
X115736666Y-102795714D01*
G04 #@! TO.C,C17*
X116352857Y-107225714D02*
X116333809Y-107263809D01*
X116276666Y-107301904D01*
X116238571Y-107301904D01*
X116181428Y-107263809D01*
X116143333Y-107187619D01*
X116124285Y-107111428D01*
X116105238Y-106959047D01*
X116105238Y-106844761D01*
X116124285Y-106692380D01*
X116143333Y-106616190D01*
X116181428Y-106540000D01*
X116238571Y-106501904D01*
X116276666Y-106501904D01*
X116333809Y-106540000D01*
X116352857Y-106578095D01*
X116733809Y-107301904D02*
X116505238Y-107301904D01*
X116619523Y-107301904D02*
X116619523Y-106501904D01*
X116581428Y-106616190D01*
X116543333Y-106692380D01*
X116505238Y-106730476D01*
X116867142Y-106501904D02*
X117133809Y-106501904D01*
X116962380Y-107301904D01*
G04 #@! TO.C,L8*
X108803333Y-74921904D02*
X108612857Y-74921904D01*
X108612857Y-74121904D01*
X108993809Y-74464761D02*
X108955714Y-74426666D01*
X108936666Y-74388571D01*
X108917619Y-74312380D01*
X108917619Y-74274285D01*
X108936666Y-74198095D01*
X108955714Y-74160000D01*
X108993809Y-74121904D01*
X109070000Y-74121904D01*
X109108095Y-74160000D01*
X109127142Y-74198095D01*
X109146190Y-74274285D01*
X109146190Y-74312380D01*
X109127142Y-74388571D01*
X109108095Y-74426666D01*
X109070000Y-74464761D01*
X108993809Y-74464761D01*
X108955714Y-74502857D01*
X108936666Y-74540952D01*
X108917619Y-74617142D01*
X108917619Y-74769523D01*
X108936666Y-74845714D01*
X108955714Y-74883809D01*
X108993809Y-74921904D01*
X109070000Y-74921904D01*
X109108095Y-74883809D01*
X109127142Y-74845714D01*
X109146190Y-74769523D01*
X109146190Y-74617142D01*
X109127142Y-74540952D01*
X109108095Y-74502857D01*
X109070000Y-74464761D01*
G04 #@! TO.C,A1*
X108284285Y-129113333D02*
X108474761Y-129113333D01*
X108246190Y-129341904D02*
X108379523Y-128541904D01*
X108512857Y-129341904D01*
X108855714Y-129341904D02*
X108627142Y-129341904D01*
X108741428Y-129341904D02*
X108741428Y-128541904D01*
X108703333Y-128656190D01*
X108665238Y-128732380D01*
X108627142Y-128770476D01*
G04 #@! TO.C,J2*
X134596666Y-101861904D02*
X134596666Y-102433333D01*
X134577619Y-102547619D01*
X134539523Y-102623809D01*
X134482380Y-102661904D01*
X134444285Y-102661904D01*
X134768095Y-101938095D02*
X134787142Y-101900000D01*
X134825238Y-101861904D01*
X134920476Y-101861904D01*
X134958571Y-101900000D01*
X134977619Y-101938095D01*
X134996666Y-102014285D01*
X134996666Y-102090476D01*
X134977619Y-102204761D01*
X134749047Y-102661904D01*
X134996666Y-102661904D01*
G04 #@! TO.C,R2*
X116633333Y-110681904D02*
X116500000Y-110300952D01*
X116404761Y-110681904D02*
X116404761Y-109881904D01*
X116557142Y-109881904D01*
X116595238Y-109920000D01*
X116614285Y-109958095D01*
X116633333Y-110034285D01*
X116633333Y-110148571D01*
X116614285Y-110224761D01*
X116595238Y-110262857D01*
X116557142Y-110300952D01*
X116404761Y-110300952D01*
X116785714Y-109958095D02*
X116804761Y-109920000D01*
X116842857Y-109881904D01*
X116938095Y-109881904D01*
X116976190Y-109920000D01*
X116995238Y-109958095D01*
X117014285Y-110034285D01*
X117014285Y-110110476D01*
X116995238Y-110224761D01*
X116766666Y-110681904D01*
X117014285Y-110681904D01*
G04 #@! TO.C,R3*
X115833333Y-74861904D02*
X115700000Y-74480952D01*
X115604761Y-74861904D02*
X115604761Y-74061904D01*
X115757142Y-74061904D01*
X115795238Y-74100000D01*
X115814285Y-74138095D01*
X115833333Y-74214285D01*
X115833333Y-74328571D01*
X115814285Y-74404761D01*
X115795238Y-74442857D01*
X115757142Y-74480952D01*
X115604761Y-74480952D01*
X115966666Y-74061904D02*
X116214285Y-74061904D01*
X116080952Y-74366666D01*
X116138095Y-74366666D01*
X116176190Y-74404761D01*
X116195238Y-74442857D01*
X116214285Y-74519047D01*
X116214285Y-74709523D01*
X116195238Y-74785714D01*
X116176190Y-74823809D01*
X116138095Y-74861904D01*
X116023809Y-74861904D01*
X115985714Y-74823809D01*
X115966666Y-74785714D01*
G04 #@! TO.C,R5*
X118833333Y-74961904D02*
X118700000Y-74580952D01*
X118604761Y-74961904D02*
X118604761Y-74161904D01*
X118757142Y-74161904D01*
X118795238Y-74200000D01*
X118814285Y-74238095D01*
X118833333Y-74314285D01*
X118833333Y-74428571D01*
X118814285Y-74504761D01*
X118795238Y-74542857D01*
X118757142Y-74580952D01*
X118604761Y-74580952D01*
X119195238Y-74161904D02*
X119004761Y-74161904D01*
X118985714Y-74542857D01*
X119004761Y-74504761D01*
X119042857Y-74466666D01*
X119138095Y-74466666D01*
X119176190Y-74504761D01*
X119195238Y-74542857D01*
X119214285Y-74619047D01*
X119214285Y-74809523D01*
X119195238Y-74885714D01*
X119176190Y-74923809D01*
X119138095Y-74961904D01*
X119042857Y-74961904D01*
X119004761Y-74923809D01*
X118985714Y-74885714D01*
G04 #@! TO.C,R6*
X114233333Y-74861904D02*
X114100000Y-74480952D01*
X114004761Y-74861904D02*
X114004761Y-74061904D01*
X114157142Y-74061904D01*
X114195238Y-74100000D01*
X114214285Y-74138095D01*
X114233333Y-74214285D01*
X114233333Y-74328571D01*
X114214285Y-74404761D01*
X114195238Y-74442857D01*
X114157142Y-74480952D01*
X114004761Y-74480952D01*
X114576190Y-74061904D02*
X114500000Y-74061904D01*
X114461904Y-74100000D01*
X114442857Y-74138095D01*
X114404761Y-74252380D01*
X114385714Y-74404761D01*
X114385714Y-74709523D01*
X114404761Y-74785714D01*
X114423809Y-74823809D01*
X114461904Y-74861904D01*
X114538095Y-74861904D01*
X114576190Y-74823809D01*
X114595238Y-74785714D01*
X114614285Y-74709523D01*
X114614285Y-74519047D01*
X114595238Y-74442857D01*
X114576190Y-74404761D01*
X114538095Y-74366666D01*
X114461904Y-74366666D01*
X114423809Y-74404761D01*
X114404761Y-74442857D01*
X114385714Y-74519047D01*
G04 #@! TO.C,R8*
X126743333Y-114951904D02*
X126610000Y-114570952D01*
X126514761Y-114951904D02*
X126514761Y-114151904D01*
X126667142Y-114151904D01*
X126705238Y-114190000D01*
X126724285Y-114228095D01*
X126743333Y-114304285D01*
X126743333Y-114418571D01*
X126724285Y-114494761D01*
X126705238Y-114532857D01*
X126667142Y-114570952D01*
X126514761Y-114570952D01*
X126971904Y-114494761D02*
X126933809Y-114456666D01*
X126914761Y-114418571D01*
X126895714Y-114342380D01*
X126895714Y-114304285D01*
X126914761Y-114228095D01*
X126933809Y-114190000D01*
X126971904Y-114151904D01*
X127048095Y-114151904D01*
X127086190Y-114190000D01*
X127105238Y-114228095D01*
X127124285Y-114304285D01*
X127124285Y-114342380D01*
X127105238Y-114418571D01*
X127086190Y-114456666D01*
X127048095Y-114494761D01*
X126971904Y-114494761D01*
X126933809Y-114532857D01*
X126914761Y-114570952D01*
X126895714Y-114647142D01*
X126895714Y-114799523D01*
X126914761Y-114875714D01*
X126933809Y-114913809D01*
X126971904Y-114951904D01*
X127048095Y-114951904D01*
X127086190Y-114913809D01*
X127105238Y-114875714D01*
X127124285Y-114799523D01*
X127124285Y-114647142D01*
X127105238Y-114570952D01*
X127086190Y-114532857D01*
X127048095Y-114494761D01*
G04 #@! TO.C,R1*
X116613333Y-108961904D02*
X116480000Y-108580952D01*
X116384761Y-108961904D02*
X116384761Y-108161904D01*
X116537142Y-108161904D01*
X116575238Y-108200000D01*
X116594285Y-108238095D01*
X116613333Y-108314285D01*
X116613333Y-108428571D01*
X116594285Y-108504761D01*
X116575238Y-108542857D01*
X116537142Y-108580952D01*
X116384761Y-108580952D01*
X116994285Y-108961904D02*
X116765714Y-108961904D01*
X116880000Y-108961904D02*
X116880000Y-108161904D01*
X116841904Y-108276190D01*
X116803809Y-108352380D01*
X116765714Y-108390476D01*
G04 #@! TO.C,U3*
X120535238Y-106871904D02*
X120535238Y-107519523D01*
X120554285Y-107595714D01*
X120573333Y-107633809D01*
X120611428Y-107671904D01*
X120687619Y-107671904D01*
X120725714Y-107633809D01*
X120744761Y-107595714D01*
X120763809Y-107519523D01*
X120763809Y-106871904D01*
X120916190Y-106871904D02*
X121163809Y-106871904D01*
X121030476Y-107176666D01*
X121087619Y-107176666D01*
X121125714Y-107214761D01*
X121144761Y-107252857D01*
X121163809Y-107329047D01*
X121163809Y-107519523D01*
X121144761Y-107595714D01*
X121125714Y-107633809D01*
X121087619Y-107671904D01*
X120973333Y-107671904D01*
X120935238Y-107633809D01*
X120916190Y-107595714D01*
G04 #@! TO.C,Y1*
X129019523Y-94430952D02*
X129019523Y-94811904D01*
X128886190Y-94011904D02*
X129019523Y-94430952D01*
X129152857Y-94011904D01*
X129495714Y-94811904D02*
X129267142Y-94811904D01*
X129381428Y-94811904D02*
X129381428Y-94011904D01*
X129343333Y-94126190D01*
X129305238Y-94202380D01*
X129267142Y-94240476D01*
G04 #@! TO.C,L7*
X96033333Y-78871904D02*
X95842857Y-78871904D01*
X95842857Y-78071904D01*
X96128571Y-78071904D02*
X96395238Y-78071904D01*
X96223809Y-78871904D01*
G04 #@! TO.C,TP5*
X120175238Y-84843904D02*
X120403809Y-84843904D01*
X120289523Y-85643904D02*
X120289523Y-84843904D01*
X120537142Y-85643904D02*
X120537142Y-84843904D01*
X120689523Y-84843904D01*
X120727619Y-84882000D01*
X120746666Y-84920095D01*
X120765714Y-84996285D01*
X120765714Y-85110571D01*
X120746666Y-85186761D01*
X120727619Y-85224857D01*
X120689523Y-85262952D01*
X120537142Y-85262952D01*
X121127619Y-84843904D02*
X120937142Y-84843904D01*
X120918095Y-85224857D01*
X120937142Y-85186761D01*
X120975238Y-85148666D01*
X121070476Y-85148666D01*
X121108571Y-85186761D01*
X121127619Y-85224857D01*
X121146666Y-85301047D01*
X121146666Y-85491523D01*
X121127619Y-85567714D01*
X121108571Y-85605809D01*
X121070476Y-85643904D01*
X120975238Y-85643904D01*
X120937142Y-85605809D01*
X120918095Y-85567714D01*
G04 #@! TO.C,TP4*
X122175238Y-84843904D02*
X122403809Y-84843904D01*
X122289523Y-85643904D02*
X122289523Y-84843904D01*
X122537142Y-85643904D02*
X122537142Y-84843904D01*
X122689523Y-84843904D01*
X122727619Y-84882000D01*
X122746666Y-84920095D01*
X122765714Y-84996285D01*
X122765714Y-85110571D01*
X122746666Y-85186761D01*
X122727619Y-85224857D01*
X122689523Y-85262952D01*
X122537142Y-85262952D01*
X123108571Y-85110571D02*
X123108571Y-85643904D01*
X123013333Y-84805809D02*
X122918095Y-85377238D01*
X123165714Y-85377238D01*
G04 #@! TO.C,TP3*
X124175238Y-84843904D02*
X124403809Y-84843904D01*
X124289523Y-85643904D02*
X124289523Y-84843904D01*
X124537142Y-85643904D02*
X124537142Y-84843904D01*
X124689523Y-84843904D01*
X124727619Y-84882000D01*
X124746666Y-84920095D01*
X124765714Y-84996285D01*
X124765714Y-85110571D01*
X124746666Y-85186761D01*
X124727619Y-85224857D01*
X124689523Y-85262952D01*
X124537142Y-85262952D01*
X124899047Y-84843904D02*
X125146666Y-84843904D01*
X125013333Y-85148666D01*
X125070476Y-85148666D01*
X125108571Y-85186761D01*
X125127619Y-85224857D01*
X125146666Y-85301047D01*
X125146666Y-85491523D01*
X125127619Y-85567714D01*
X125108571Y-85605809D01*
X125070476Y-85643904D01*
X124956190Y-85643904D01*
X124918095Y-85605809D01*
X124899047Y-85567714D01*
G04 #@! TO.C,TP2*
X126175238Y-84843904D02*
X126403809Y-84843904D01*
X126289523Y-85643904D02*
X126289523Y-84843904D01*
X126537142Y-85643904D02*
X126537142Y-84843904D01*
X126689523Y-84843904D01*
X126727619Y-84882000D01*
X126746666Y-84920095D01*
X126765714Y-84996285D01*
X126765714Y-85110571D01*
X126746666Y-85186761D01*
X126727619Y-85224857D01*
X126689523Y-85262952D01*
X126537142Y-85262952D01*
X126918095Y-84920095D02*
X126937142Y-84882000D01*
X126975238Y-84843904D01*
X127070476Y-84843904D01*
X127108571Y-84882000D01*
X127127619Y-84920095D01*
X127146666Y-84996285D01*
X127146666Y-85072476D01*
X127127619Y-85186761D01*
X126899047Y-85643904D01*
X127146666Y-85643904D01*
G04 #@! TO.C,TP8*
X113965238Y-84813904D02*
X114193809Y-84813904D01*
X114079523Y-85613904D02*
X114079523Y-84813904D01*
X114327142Y-85613904D02*
X114327142Y-84813904D01*
X114479523Y-84813904D01*
X114517619Y-84852000D01*
X114536666Y-84890095D01*
X114555714Y-84966285D01*
X114555714Y-85080571D01*
X114536666Y-85156761D01*
X114517619Y-85194857D01*
X114479523Y-85232952D01*
X114327142Y-85232952D01*
X114784285Y-85156761D02*
X114746190Y-85118666D01*
X114727142Y-85080571D01*
X114708095Y-85004380D01*
X114708095Y-84966285D01*
X114727142Y-84890095D01*
X114746190Y-84852000D01*
X114784285Y-84813904D01*
X114860476Y-84813904D01*
X114898571Y-84852000D01*
X114917619Y-84890095D01*
X114936666Y-84966285D01*
X114936666Y-85004380D01*
X114917619Y-85080571D01*
X114898571Y-85118666D01*
X114860476Y-85156761D01*
X114784285Y-85156761D01*
X114746190Y-85194857D01*
X114727142Y-85232952D01*
X114708095Y-85309142D01*
X114708095Y-85461523D01*
X114727142Y-85537714D01*
X114746190Y-85575809D01*
X114784285Y-85613904D01*
X114860476Y-85613904D01*
X114898571Y-85575809D01*
X114917619Y-85537714D01*
X114936666Y-85461523D01*
X114936666Y-85309142D01*
X114917619Y-85232952D01*
X114898571Y-85194857D01*
X114860476Y-85156761D01*
G04 #@! TO.C,TP7*
X129995238Y-84813904D02*
X130223809Y-84813904D01*
X130109523Y-85613904D02*
X130109523Y-84813904D01*
X130357142Y-85613904D02*
X130357142Y-84813904D01*
X130509523Y-84813904D01*
X130547619Y-84852000D01*
X130566666Y-84890095D01*
X130585714Y-84966285D01*
X130585714Y-85080571D01*
X130566666Y-85156761D01*
X130547619Y-85194857D01*
X130509523Y-85232952D01*
X130357142Y-85232952D01*
X130719047Y-84813904D02*
X130985714Y-84813904D01*
X130814285Y-85613904D01*
G04 #@! TO.C,TP6*
X118175238Y-84843904D02*
X118403809Y-84843904D01*
X118289523Y-85643904D02*
X118289523Y-84843904D01*
X118537142Y-85643904D02*
X118537142Y-84843904D01*
X118689523Y-84843904D01*
X118727619Y-84882000D01*
X118746666Y-84920095D01*
X118765714Y-84996285D01*
X118765714Y-85110571D01*
X118746666Y-85186761D01*
X118727619Y-85224857D01*
X118689523Y-85262952D01*
X118537142Y-85262952D01*
X119108571Y-84843904D02*
X119032380Y-84843904D01*
X118994285Y-84882000D01*
X118975238Y-84920095D01*
X118937142Y-85034380D01*
X118918095Y-85186761D01*
X118918095Y-85491523D01*
X118937142Y-85567714D01*
X118956190Y-85605809D01*
X118994285Y-85643904D01*
X119070476Y-85643904D01*
X119108571Y-85605809D01*
X119127619Y-85567714D01*
X119146666Y-85491523D01*
X119146666Y-85301047D01*
X119127619Y-85224857D01*
X119108571Y-85186761D01*
X119070476Y-85148666D01*
X118994285Y-85148666D01*
X118956190Y-85186761D01*
X118937142Y-85224857D01*
X118918095Y-85301047D01*
G04 #@! TO.C,TP1*
X128175238Y-84843904D02*
X128403809Y-84843904D01*
X128289523Y-85643904D02*
X128289523Y-84843904D01*
X128537142Y-85643904D02*
X128537142Y-84843904D01*
X128689523Y-84843904D01*
X128727619Y-84882000D01*
X128746666Y-84920095D01*
X128765714Y-84996285D01*
X128765714Y-85110571D01*
X128746666Y-85186761D01*
X128727619Y-85224857D01*
X128689523Y-85262952D01*
X128537142Y-85262952D01*
X129146666Y-85643904D02*
X128918095Y-85643904D01*
X129032380Y-85643904D02*
X129032380Y-84843904D01*
X128994285Y-84958190D01*
X128956190Y-85034380D01*
X128918095Y-85072476D01*
G04 #@! TO.C,C2*
X90883333Y-68765714D02*
X90864285Y-68803809D01*
X90807142Y-68841904D01*
X90769047Y-68841904D01*
X90711904Y-68803809D01*
X90673809Y-68727619D01*
X90654761Y-68651428D01*
X90635714Y-68499047D01*
X90635714Y-68384761D01*
X90654761Y-68232380D01*
X90673809Y-68156190D01*
X90711904Y-68080000D01*
X90769047Y-68041904D01*
X90807142Y-68041904D01*
X90864285Y-68080000D01*
X90883333Y-68118095D01*
X91035714Y-68118095D02*
X91054761Y-68080000D01*
X91092857Y-68041904D01*
X91188095Y-68041904D01*
X91226190Y-68080000D01*
X91245238Y-68118095D01*
X91264285Y-68194285D01*
X91264285Y-68270476D01*
X91245238Y-68384761D01*
X91016666Y-68841904D01*
X91264285Y-68841904D01*
G04 #@! TO.C,L5*
X126373333Y-108941904D02*
X126182857Y-108941904D01*
X126182857Y-108141904D01*
X126697142Y-108141904D02*
X126506666Y-108141904D01*
X126487619Y-108522857D01*
X126506666Y-108484761D01*
X126544761Y-108446666D01*
X126640000Y-108446666D01*
X126678095Y-108484761D01*
X126697142Y-108522857D01*
X126716190Y-108599047D01*
X126716190Y-108789523D01*
X126697142Y-108865714D01*
X126678095Y-108903809D01*
X126640000Y-108941904D01*
X126544761Y-108941904D01*
X126506666Y-108903809D01*
X126487619Y-108865714D01*
G04 #@! TO.C,L6*
X118423333Y-114951904D02*
X118232857Y-114951904D01*
X118232857Y-114151904D01*
X118728095Y-114151904D02*
X118651904Y-114151904D01*
X118613809Y-114190000D01*
X118594761Y-114228095D01*
X118556666Y-114342380D01*
X118537619Y-114494761D01*
X118537619Y-114799523D01*
X118556666Y-114875714D01*
X118575714Y-114913809D01*
X118613809Y-114951904D01*
X118690000Y-114951904D01*
X118728095Y-114913809D01*
X118747142Y-114875714D01*
X118766190Y-114799523D01*
X118766190Y-114609047D01*
X118747142Y-114532857D01*
X118728095Y-114494761D01*
X118690000Y-114456666D01*
X118613809Y-114456666D01*
X118575714Y-114494761D01*
X118556666Y-114532857D01*
X118537619Y-114609047D01*
G04 #@! TO.C,L4*
X126303333Y-105811904D02*
X126112857Y-105811904D01*
X126112857Y-105011904D01*
X126608095Y-105278571D02*
X126608095Y-105811904D01*
X126512857Y-104973809D02*
X126417619Y-105545238D01*
X126665238Y-105545238D01*
G04 #@! TO.C,L3*
X118680833Y-104411904D02*
X118490357Y-104411904D01*
X118490357Y-103611904D01*
X118776071Y-103611904D02*
X119023690Y-103611904D01*
X118890357Y-103916666D01*
X118947500Y-103916666D01*
X118985595Y-103954761D01*
X119004642Y-103992857D01*
X119023690Y-104069047D01*
X119023690Y-104259523D01*
X119004642Y-104335714D01*
X118985595Y-104373809D01*
X118947500Y-104411904D01*
X118833214Y-104411904D01*
X118795119Y-104373809D01*
X118776071Y-104335714D01*
G04 #@! TO.C,L1*
X122595833Y-101181904D02*
X122405357Y-101181904D01*
X122405357Y-100381904D01*
X122938690Y-101181904D02*
X122710119Y-101181904D01*
X122824404Y-101181904D02*
X122824404Y-100381904D01*
X122786309Y-100496190D01*
X122748214Y-100572380D01*
X122710119Y-100610476D01*
G04 #@! TO.C,L2*
X129283333Y-104301904D02*
X129092857Y-104301904D01*
X129092857Y-103501904D01*
X129397619Y-103578095D02*
X129416666Y-103540000D01*
X129454761Y-103501904D01*
X129550000Y-103501904D01*
X129588095Y-103540000D01*
X129607142Y-103578095D01*
X129626190Y-103654285D01*
X129626190Y-103730476D01*
X129607142Y-103844761D01*
X129378571Y-104301904D01*
X129626190Y-104301904D01*
G04 #@! TO.C,C21*
X116225357Y-113565714D02*
X116206309Y-113603809D01*
X116149166Y-113641904D01*
X116111071Y-113641904D01*
X116053928Y-113603809D01*
X116015833Y-113527619D01*
X115996785Y-113451428D01*
X115977738Y-113299047D01*
X115977738Y-113184761D01*
X115996785Y-113032380D01*
X116015833Y-112956190D01*
X116053928Y-112880000D01*
X116111071Y-112841904D01*
X116149166Y-112841904D01*
X116206309Y-112880000D01*
X116225357Y-112918095D01*
X116377738Y-112918095D02*
X116396785Y-112880000D01*
X116434880Y-112841904D01*
X116530119Y-112841904D01*
X116568214Y-112880000D01*
X116587261Y-112918095D01*
X116606309Y-112994285D01*
X116606309Y-113070476D01*
X116587261Y-113184761D01*
X116358690Y-113641904D01*
X116606309Y-113641904D01*
X116987261Y-113641904D02*
X116758690Y-113641904D01*
X116872976Y-113641904D02*
X116872976Y-112841904D01*
X116834880Y-112956190D01*
X116796785Y-113032380D01*
X116758690Y-113070476D01*
G04 #@! TO.C,C22*
X126490857Y-113507714D02*
X126471809Y-113545809D01*
X126414666Y-113583904D01*
X126376571Y-113583904D01*
X126319428Y-113545809D01*
X126281333Y-113469619D01*
X126262285Y-113393428D01*
X126243238Y-113241047D01*
X126243238Y-113126761D01*
X126262285Y-112974380D01*
X126281333Y-112898190D01*
X126319428Y-112822000D01*
X126376571Y-112783904D01*
X126414666Y-112783904D01*
X126471809Y-112822000D01*
X126490857Y-112860095D01*
X126643238Y-112860095D02*
X126662285Y-112822000D01*
X126700380Y-112783904D01*
X126795619Y-112783904D01*
X126833714Y-112822000D01*
X126852761Y-112860095D01*
X126871809Y-112936285D01*
X126871809Y-113012476D01*
X126852761Y-113126761D01*
X126624190Y-113583904D01*
X126871809Y-113583904D01*
X127024190Y-112860095D02*
X127043238Y-112822000D01*
X127081333Y-112783904D01*
X127176571Y-112783904D01*
X127214666Y-112822000D01*
X127233714Y-112860095D01*
X127252761Y-112936285D01*
X127252761Y-113012476D01*
X127233714Y-113126761D01*
X127005142Y-113583904D01*
X127252761Y-113583904D01*
G04 #@! TO.C,C11*
X114832857Y-104525714D02*
X114813809Y-104563809D01*
X114756666Y-104601904D01*
X114718571Y-104601904D01*
X114661428Y-104563809D01*
X114623333Y-104487619D01*
X114604285Y-104411428D01*
X114585238Y-104259047D01*
X114585238Y-104144761D01*
X114604285Y-103992380D01*
X114623333Y-103916190D01*
X114661428Y-103840000D01*
X114718571Y-103801904D01*
X114756666Y-103801904D01*
X114813809Y-103840000D01*
X114832857Y-103878095D01*
X115213809Y-104601904D02*
X114985238Y-104601904D01*
X115099523Y-104601904D02*
X115099523Y-103801904D01*
X115061428Y-103916190D01*
X115023333Y-103992380D01*
X114985238Y-104030476D01*
X115594761Y-104601904D02*
X115366190Y-104601904D01*
X115480476Y-104601904D02*
X115480476Y-103801904D01*
X115442380Y-103916190D01*
X115404285Y-103992380D01*
X115366190Y-104030476D01*
G04 #@! TO.C,C4*
X128433333Y-90815714D02*
X128414285Y-90853809D01*
X128357142Y-90891904D01*
X128319047Y-90891904D01*
X128261904Y-90853809D01*
X128223809Y-90777619D01*
X128204761Y-90701428D01*
X128185714Y-90549047D01*
X128185714Y-90434761D01*
X128204761Y-90282380D01*
X128223809Y-90206190D01*
X128261904Y-90130000D01*
X128319047Y-90091904D01*
X128357142Y-90091904D01*
X128414285Y-90130000D01*
X128433333Y-90168095D01*
X128776190Y-90358571D02*
X128776190Y-90891904D01*
X128680952Y-90053809D02*
X128585714Y-90625238D01*
X128833333Y-90625238D01*
G04 #@! TO.C,C5*
X126753333Y-90803214D02*
X126734285Y-90841309D01*
X126677142Y-90879404D01*
X126639047Y-90879404D01*
X126581904Y-90841309D01*
X126543809Y-90765119D01*
X126524761Y-90688928D01*
X126505714Y-90536547D01*
X126505714Y-90422261D01*
X126524761Y-90269880D01*
X126543809Y-90193690D01*
X126581904Y-90117500D01*
X126639047Y-90079404D01*
X126677142Y-90079404D01*
X126734285Y-90117500D01*
X126753333Y-90155595D01*
X127115238Y-90079404D02*
X126924761Y-90079404D01*
X126905714Y-90460357D01*
X126924761Y-90422261D01*
X126962857Y-90384166D01*
X127058095Y-90384166D01*
X127096190Y-90422261D01*
X127115238Y-90460357D01*
X127134285Y-90536547D01*
X127134285Y-90727023D01*
X127115238Y-90803214D01*
X127096190Y-90841309D01*
X127058095Y-90879404D01*
X126962857Y-90879404D01*
X126924761Y-90841309D01*
X126905714Y-90803214D01*
G04 #@! TO.C,C6*
X117293333Y-102635714D02*
X117274285Y-102673809D01*
X117217142Y-102711904D01*
X117179047Y-102711904D01*
X117121904Y-102673809D01*
X117083809Y-102597619D01*
X117064761Y-102521428D01*
X117045714Y-102369047D01*
X117045714Y-102254761D01*
X117064761Y-102102380D01*
X117083809Y-102026190D01*
X117121904Y-101950000D01*
X117179047Y-101911904D01*
X117217142Y-101911904D01*
X117274285Y-101950000D01*
X117293333Y-101988095D01*
X117636190Y-101911904D02*
X117560000Y-101911904D01*
X117521904Y-101950000D01*
X117502857Y-101988095D01*
X117464761Y-102102380D01*
X117445714Y-102254761D01*
X117445714Y-102559523D01*
X117464761Y-102635714D01*
X117483809Y-102673809D01*
X117521904Y-102711904D01*
X117598095Y-102711904D01*
X117636190Y-102673809D01*
X117655238Y-102635714D01*
X117674285Y-102559523D01*
X117674285Y-102369047D01*
X117655238Y-102292857D01*
X117636190Y-102254761D01*
X117598095Y-102216666D01*
X117521904Y-102216666D01*
X117483809Y-102254761D01*
X117464761Y-102292857D01*
X117445714Y-102369047D01*
G04 #@! TO.C,C7*
X125613333Y-99485714D02*
X125594285Y-99523809D01*
X125537142Y-99561904D01*
X125499047Y-99561904D01*
X125441904Y-99523809D01*
X125403809Y-99447619D01*
X125384761Y-99371428D01*
X125365714Y-99219047D01*
X125365714Y-99104761D01*
X125384761Y-98952380D01*
X125403809Y-98876190D01*
X125441904Y-98800000D01*
X125499047Y-98761904D01*
X125537142Y-98761904D01*
X125594285Y-98800000D01*
X125613333Y-98838095D01*
X125746666Y-98761904D02*
X126013333Y-98761904D01*
X125841904Y-99561904D01*
G04 #@! TO.C,C8*
X122593333Y-102735714D02*
X122574285Y-102773809D01*
X122517142Y-102811904D01*
X122479047Y-102811904D01*
X122421904Y-102773809D01*
X122383809Y-102697619D01*
X122364761Y-102621428D01*
X122345714Y-102469047D01*
X122345714Y-102354761D01*
X122364761Y-102202380D01*
X122383809Y-102126190D01*
X122421904Y-102050000D01*
X122479047Y-102011904D01*
X122517142Y-102011904D01*
X122574285Y-102050000D01*
X122593333Y-102088095D01*
X122821904Y-102354761D02*
X122783809Y-102316666D01*
X122764761Y-102278571D01*
X122745714Y-102202380D01*
X122745714Y-102164285D01*
X122764761Y-102088095D01*
X122783809Y-102050000D01*
X122821904Y-102011904D01*
X122898095Y-102011904D01*
X122936190Y-102050000D01*
X122955238Y-102088095D01*
X122974285Y-102164285D01*
X122974285Y-102202380D01*
X122955238Y-102278571D01*
X122936190Y-102316666D01*
X122898095Y-102354761D01*
X122821904Y-102354761D01*
X122783809Y-102392857D01*
X122764761Y-102430952D01*
X122745714Y-102507142D01*
X122745714Y-102659523D01*
X122764761Y-102735714D01*
X122783809Y-102773809D01*
X122821904Y-102811904D01*
X122898095Y-102811904D01*
X122936190Y-102773809D01*
X122955238Y-102735714D01*
X122974285Y-102659523D01*
X122974285Y-102507142D01*
X122955238Y-102430952D01*
X122936190Y-102392857D01*
X122898095Y-102354761D01*
G04 #@! TO.C,C9*
X129273333Y-97945714D02*
X129254285Y-97983809D01*
X129197142Y-98021904D01*
X129159047Y-98021904D01*
X129101904Y-97983809D01*
X129063809Y-97907619D01*
X129044761Y-97831428D01*
X129025714Y-97679047D01*
X129025714Y-97564761D01*
X129044761Y-97412380D01*
X129063809Y-97336190D01*
X129101904Y-97260000D01*
X129159047Y-97221904D01*
X129197142Y-97221904D01*
X129254285Y-97260000D01*
X129273333Y-97298095D01*
X129463809Y-98021904D02*
X129540000Y-98021904D01*
X129578095Y-97983809D01*
X129597142Y-97945714D01*
X129635238Y-97831428D01*
X129654285Y-97679047D01*
X129654285Y-97374285D01*
X129635238Y-97298095D01*
X129616190Y-97260000D01*
X129578095Y-97221904D01*
X129501904Y-97221904D01*
X129463809Y-97260000D01*
X129444761Y-97298095D01*
X129425714Y-97374285D01*
X129425714Y-97564761D01*
X129444761Y-97640952D01*
X129463809Y-97679047D01*
X129501904Y-97717142D01*
X129578095Y-97717142D01*
X129616190Y-97679047D01*
X129635238Y-97640952D01*
X129654285Y-97564761D01*
G04 #@! TO.C,C10*
X126332857Y-104165714D02*
X126313809Y-104203809D01*
X126256666Y-104241904D01*
X126218571Y-104241904D01*
X126161428Y-104203809D01*
X126123333Y-104127619D01*
X126104285Y-104051428D01*
X126085238Y-103899047D01*
X126085238Y-103784761D01*
X126104285Y-103632380D01*
X126123333Y-103556190D01*
X126161428Y-103480000D01*
X126218571Y-103441904D01*
X126256666Y-103441904D01*
X126313809Y-103480000D01*
X126332857Y-103518095D01*
X126713809Y-104241904D02*
X126485238Y-104241904D01*
X126599523Y-104241904D02*
X126599523Y-103441904D01*
X126561428Y-103556190D01*
X126523333Y-103632380D01*
X126485238Y-103670476D01*
X126961428Y-103441904D02*
X126999523Y-103441904D01*
X127037619Y-103480000D01*
X127056666Y-103518095D01*
X127075714Y-103594285D01*
X127094761Y-103746666D01*
X127094761Y-103937142D01*
X127075714Y-104089523D01*
X127056666Y-104165714D01*
X127037619Y-104203809D01*
X126999523Y-104241904D01*
X126961428Y-104241904D01*
X126923333Y-104203809D01*
X126904285Y-104165714D01*
X126885238Y-104089523D01*
X126866190Y-103937142D01*
X126866190Y-103746666D01*
X126885238Y-103594285D01*
X126904285Y-103518095D01*
X126923333Y-103480000D01*
X126961428Y-103441904D01*
G04 #@! TO.C,C1*
X92873333Y-68765714D02*
X92854285Y-68803809D01*
X92797142Y-68841904D01*
X92759047Y-68841904D01*
X92701904Y-68803809D01*
X92663809Y-68727619D01*
X92644761Y-68651428D01*
X92625714Y-68499047D01*
X92625714Y-68384761D01*
X92644761Y-68232380D01*
X92663809Y-68156190D01*
X92701904Y-68080000D01*
X92759047Y-68041904D01*
X92797142Y-68041904D01*
X92854285Y-68080000D01*
X92873333Y-68118095D01*
X93254285Y-68841904D02*
X93025714Y-68841904D01*
X93140000Y-68841904D02*
X93140000Y-68041904D01*
X93101904Y-68156190D01*
X93063809Y-68232380D01*
X93025714Y-68270476D01*
G04 #@! TO.C,C12*
X129292857Y-102705714D02*
X129273809Y-102743809D01*
X129216666Y-102781904D01*
X129178571Y-102781904D01*
X129121428Y-102743809D01*
X129083333Y-102667619D01*
X129064285Y-102591428D01*
X129045238Y-102439047D01*
X129045238Y-102324761D01*
X129064285Y-102172380D01*
X129083333Y-102096190D01*
X129121428Y-102020000D01*
X129178571Y-101981904D01*
X129216666Y-101981904D01*
X129273809Y-102020000D01*
X129292857Y-102058095D01*
X129673809Y-102781904D02*
X129445238Y-102781904D01*
X129559523Y-102781904D02*
X129559523Y-101981904D01*
X129521428Y-102096190D01*
X129483333Y-102172380D01*
X129445238Y-102210476D01*
X129826190Y-102058095D02*
X129845238Y-102020000D01*
X129883333Y-101981904D01*
X129978571Y-101981904D01*
X130016666Y-102020000D01*
X130035714Y-102058095D01*
X130054761Y-102134285D01*
X130054761Y-102210476D01*
X130035714Y-102324761D01*
X129807142Y-102781904D01*
X130054761Y-102781904D01*
G04 #@! TO.C,C13*
X129192857Y-101165714D02*
X129173809Y-101203809D01*
X129116666Y-101241904D01*
X129078571Y-101241904D01*
X129021428Y-101203809D01*
X128983333Y-101127619D01*
X128964285Y-101051428D01*
X128945238Y-100899047D01*
X128945238Y-100784761D01*
X128964285Y-100632380D01*
X128983333Y-100556190D01*
X129021428Y-100480000D01*
X129078571Y-100441904D01*
X129116666Y-100441904D01*
X129173809Y-100480000D01*
X129192857Y-100518095D01*
X129573809Y-101241904D02*
X129345238Y-101241904D01*
X129459523Y-101241904D02*
X129459523Y-100441904D01*
X129421428Y-100556190D01*
X129383333Y-100632380D01*
X129345238Y-100670476D01*
X129707142Y-100441904D02*
X129954761Y-100441904D01*
X129821428Y-100746666D01*
X129878571Y-100746666D01*
X129916666Y-100784761D01*
X129935714Y-100822857D01*
X129954761Y-100899047D01*
X129954761Y-101089523D01*
X129935714Y-101165714D01*
X129916666Y-101203809D01*
X129878571Y-101241904D01*
X129764285Y-101241904D01*
X129726190Y-101203809D01*
X129707142Y-101165714D01*
G04 #@! TO.C,C14*
X121387857Y-104565714D02*
X121368809Y-104603809D01*
X121311666Y-104641904D01*
X121273571Y-104641904D01*
X121216428Y-104603809D01*
X121178333Y-104527619D01*
X121159285Y-104451428D01*
X121140238Y-104299047D01*
X121140238Y-104184761D01*
X121159285Y-104032380D01*
X121178333Y-103956190D01*
X121216428Y-103880000D01*
X121273571Y-103841904D01*
X121311666Y-103841904D01*
X121368809Y-103880000D01*
X121387857Y-103918095D01*
X121768809Y-104641904D02*
X121540238Y-104641904D01*
X121654523Y-104641904D02*
X121654523Y-103841904D01*
X121616428Y-103956190D01*
X121578333Y-104032380D01*
X121540238Y-104070476D01*
X122111666Y-104108571D02*
X122111666Y-104641904D01*
X122016428Y-103803809D02*
X121921190Y-104375238D01*
X122168809Y-104375238D01*
G04 #@! TO.C,C15*
X126322857Y-107295714D02*
X126303809Y-107333809D01*
X126246666Y-107371904D01*
X126208571Y-107371904D01*
X126151428Y-107333809D01*
X126113333Y-107257619D01*
X126094285Y-107181428D01*
X126075238Y-107029047D01*
X126075238Y-106914761D01*
X126094285Y-106762380D01*
X126113333Y-106686190D01*
X126151428Y-106610000D01*
X126208571Y-106571904D01*
X126246666Y-106571904D01*
X126303809Y-106610000D01*
X126322857Y-106648095D01*
X126703809Y-107371904D02*
X126475238Y-107371904D01*
X126589523Y-107371904D02*
X126589523Y-106571904D01*
X126551428Y-106686190D01*
X126513333Y-106762380D01*
X126475238Y-106800476D01*
X127065714Y-106571904D02*
X126875238Y-106571904D01*
X126856190Y-106952857D01*
X126875238Y-106914761D01*
X126913333Y-106876666D01*
X127008571Y-106876666D01*
X127046666Y-106914761D01*
X127065714Y-106952857D01*
X127084761Y-107029047D01*
X127084761Y-107219523D01*
X127065714Y-107295714D01*
X127046666Y-107333809D01*
X127008571Y-107371904D01*
X126913333Y-107371904D01*
X126875238Y-107333809D01*
X126856190Y-107295714D01*
G04 #@! TO.C,C16*
X126380357Y-111915714D02*
X126361309Y-111953809D01*
X126304166Y-111991904D01*
X126266071Y-111991904D01*
X126208928Y-111953809D01*
X126170833Y-111877619D01*
X126151785Y-111801428D01*
X126132738Y-111649047D01*
X126132738Y-111534761D01*
X126151785Y-111382380D01*
X126170833Y-111306190D01*
X126208928Y-111230000D01*
X126266071Y-111191904D01*
X126304166Y-111191904D01*
X126361309Y-111230000D01*
X126380357Y-111268095D01*
X126761309Y-111991904D02*
X126532738Y-111991904D01*
X126647023Y-111991904D02*
X126647023Y-111191904D01*
X126608928Y-111306190D01*
X126570833Y-111382380D01*
X126532738Y-111420476D01*
X127104166Y-111191904D02*
X127027976Y-111191904D01*
X126989880Y-111230000D01*
X126970833Y-111268095D01*
X126932738Y-111382380D01*
X126913690Y-111534761D01*
X126913690Y-111839523D01*
X126932738Y-111915714D01*
X126951785Y-111953809D01*
X126989880Y-111991904D01*
X127066071Y-111991904D01*
X127104166Y-111953809D01*
X127123214Y-111915714D01*
X127142261Y-111839523D01*
X127142261Y-111649047D01*
X127123214Y-111572857D01*
X127104166Y-111534761D01*
X127066071Y-111496666D01*
X126989880Y-111496666D01*
X126951785Y-111534761D01*
X126932738Y-111572857D01*
X126913690Y-111649047D01*
G04 #@! TO.C,C18*
X126367857Y-110605714D02*
X126348809Y-110643809D01*
X126291666Y-110681904D01*
X126253571Y-110681904D01*
X126196428Y-110643809D01*
X126158333Y-110567619D01*
X126139285Y-110491428D01*
X126120238Y-110339047D01*
X126120238Y-110224761D01*
X126139285Y-110072380D01*
X126158333Y-109996190D01*
X126196428Y-109920000D01*
X126253571Y-109881904D01*
X126291666Y-109881904D01*
X126348809Y-109920000D01*
X126367857Y-109958095D01*
X126748809Y-110681904D02*
X126520238Y-110681904D01*
X126634523Y-110681904D02*
X126634523Y-109881904D01*
X126596428Y-109996190D01*
X126558333Y-110072380D01*
X126520238Y-110110476D01*
X126977380Y-110224761D02*
X126939285Y-110186666D01*
X126920238Y-110148571D01*
X126901190Y-110072380D01*
X126901190Y-110034285D01*
X126920238Y-109958095D01*
X126939285Y-109920000D01*
X126977380Y-109881904D01*
X127053571Y-109881904D01*
X127091666Y-109920000D01*
X127110714Y-109958095D01*
X127129761Y-110034285D01*
X127129761Y-110072380D01*
X127110714Y-110148571D01*
X127091666Y-110186666D01*
X127053571Y-110224761D01*
X126977380Y-110224761D01*
X126939285Y-110262857D01*
X126920238Y-110300952D01*
X126901190Y-110377142D01*
X126901190Y-110529523D01*
X126920238Y-110605714D01*
X126939285Y-110643809D01*
X126977380Y-110681904D01*
X127053571Y-110681904D01*
X127091666Y-110643809D01*
X127110714Y-110605714D01*
X127129761Y-110529523D01*
X127129761Y-110377142D01*
X127110714Y-110300952D01*
X127091666Y-110262857D01*
X127053571Y-110224761D01*
G04 #@! TO.C,C19*
X116182857Y-112055714D02*
X116163809Y-112093809D01*
X116106666Y-112131904D01*
X116068571Y-112131904D01*
X116011428Y-112093809D01*
X115973333Y-112017619D01*
X115954285Y-111941428D01*
X115935238Y-111789047D01*
X115935238Y-111674761D01*
X115954285Y-111522380D01*
X115973333Y-111446190D01*
X116011428Y-111370000D01*
X116068571Y-111331904D01*
X116106666Y-111331904D01*
X116163809Y-111370000D01*
X116182857Y-111408095D01*
X116563809Y-112131904D02*
X116335238Y-112131904D01*
X116449523Y-112131904D02*
X116449523Y-111331904D01*
X116411428Y-111446190D01*
X116373333Y-111522380D01*
X116335238Y-111560476D01*
X116754285Y-112131904D02*
X116830476Y-112131904D01*
X116868571Y-112093809D01*
X116887619Y-112055714D01*
X116925714Y-111941428D01*
X116944761Y-111789047D01*
X116944761Y-111484285D01*
X116925714Y-111408095D01*
X116906666Y-111370000D01*
X116868571Y-111331904D01*
X116792380Y-111331904D01*
X116754285Y-111370000D01*
X116735238Y-111408095D01*
X116716190Y-111484285D01*
X116716190Y-111674761D01*
X116735238Y-111750952D01*
X116754285Y-111789047D01*
X116792380Y-111827142D01*
X116868571Y-111827142D01*
X116906666Y-111789047D01*
X116925714Y-111750952D01*
X116944761Y-111674761D01*
G04 #@! TO.C,C20*
X122342857Y-107595714D02*
X122323809Y-107633809D01*
X122266666Y-107671904D01*
X122228571Y-107671904D01*
X122171428Y-107633809D01*
X122133333Y-107557619D01*
X122114285Y-107481428D01*
X122095238Y-107329047D01*
X122095238Y-107214761D01*
X122114285Y-107062380D01*
X122133333Y-106986190D01*
X122171428Y-106910000D01*
X122228571Y-106871904D01*
X122266666Y-106871904D01*
X122323809Y-106910000D01*
X122342857Y-106948095D01*
X122495238Y-106948095D02*
X122514285Y-106910000D01*
X122552380Y-106871904D01*
X122647619Y-106871904D01*
X122685714Y-106910000D01*
X122704761Y-106948095D01*
X122723809Y-107024285D01*
X122723809Y-107100476D01*
X122704761Y-107214761D01*
X122476190Y-107671904D01*
X122723809Y-107671904D01*
X122971428Y-106871904D02*
X123009523Y-106871904D01*
X123047619Y-106910000D01*
X123066666Y-106948095D01*
X123085714Y-107024285D01*
X123104761Y-107176666D01*
X123104761Y-107367142D01*
X123085714Y-107519523D01*
X123066666Y-107595714D01*
X123047619Y-107633809D01*
X123009523Y-107671904D01*
X122971428Y-107671904D01*
X122933333Y-107633809D01*
X122914285Y-107595714D01*
X122895238Y-107519523D01*
X122876190Y-107367142D01*
X122876190Y-107176666D01*
X122895238Y-107024285D01*
X122914285Y-106948095D01*
X122933333Y-106910000D01*
X122971428Y-106871904D01*
G04 #@! TO.C,U2*
X95885238Y-68051904D02*
X95885238Y-68699523D01*
X95904285Y-68775714D01*
X95923333Y-68813809D01*
X95961428Y-68851904D01*
X96037619Y-68851904D01*
X96075714Y-68813809D01*
X96094761Y-68775714D01*
X96113809Y-68699523D01*
X96113809Y-68051904D01*
X96285238Y-68128095D02*
X96304285Y-68090000D01*
X96342380Y-68051904D01*
X96437619Y-68051904D01*
X96475714Y-68090000D01*
X96494761Y-68128095D01*
X96513809Y-68204285D01*
X96513809Y-68280476D01*
X96494761Y-68394761D01*
X96266190Y-68851904D01*
X96513809Y-68851904D01*
G04 #@! TO.C,H4*
X139795238Y-113591904D02*
X139795238Y-112791904D01*
X139795238Y-113172857D02*
X140023809Y-113172857D01*
X140023809Y-113591904D02*
X140023809Y-112791904D01*
X140385714Y-113058571D02*
X140385714Y-113591904D01*
X140290476Y-112753809D02*
X140195238Y-113325238D01*
X140442857Y-113325238D01*
G04 #@! TO.C,H3*
X81705238Y-113671904D02*
X81705238Y-112871904D01*
X81705238Y-113252857D02*
X81933809Y-113252857D01*
X81933809Y-113671904D02*
X81933809Y-112871904D01*
X82086190Y-112871904D02*
X82333809Y-112871904D01*
X82200476Y-113176666D01*
X82257619Y-113176666D01*
X82295714Y-113214761D01*
X82314761Y-113252857D01*
X82333809Y-113329047D01*
X82333809Y-113519523D01*
X82314761Y-113595714D01*
X82295714Y-113633809D01*
X82257619Y-113671904D01*
X82143333Y-113671904D01*
X82105238Y-113633809D01*
X82086190Y-113595714D01*
G04 #@! TO.C,H2*
X139745238Y-64891904D02*
X139745238Y-64091904D01*
X139745238Y-64472857D02*
X139973809Y-64472857D01*
X139973809Y-64891904D02*
X139973809Y-64091904D01*
X140145238Y-64168095D02*
X140164285Y-64130000D01*
X140202380Y-64091904D01*
X140297619Y-64091904D01*
X140335714Y-64130000D01*
X140354761Y-64168095D01*
X140373809Y-64244285D01*
X140373809Y-64320476D01*
X140354761Y-64434761D01*
X140126190Y-64891904D01*
X140373809Y-64891904D01*
G04 #@! TO.C,H1*
X81755238Y-64531904D02*
X81755238Y-63731904D01*
X81755238Y-64112857D02*
X81983809Y-64112857D01*
X81983809Y-64531904D02*
X81983809Y-63731904D01*
X82383809Y-64531904D02*
X82155238Y-64531904D01*
X82269523Y-64531904D02*
X82269523Y-63731904D01*
X82231428Y-63846190D01*
X82193333Y-63922380D01*
X82155238Y-63960476D01*
G04 #@! TO.C,J1*
X86796666Y-66901904D02*
X86796666Y-67473333D01*
X86777619Y-67587619D01*
X86739523Y-67663809D01*
X86682380Y-67701904D01*
X86644285Y-67701904D01*
X87196666Y-67701904D02*
X86968095Y-67701904D01*
X87082380Y-67701904D02*
X87082380Y-66901904D01*
X87044285Y-67016190D01*
X87006190Y-67092380D01*
X86968095Y-67130476D01*
G04 #@! TO.C,(c) SDL Ltd 2018*
X136042857Y-74936666D02*
X136023809Y-74898571D01*
X135985714Y-74784285D01*
X135966666Y-74708095D01*
X135947619Y-74593809D01*
X135928571Y-74403333D01*
X135928571Y-74250952D01*
X135947619Y-74060476D01*
X135966666Y-73946190D01*
X135985714Y-73870000D01*
X136023809Y-73755714D01*
X136042857Y-73717619D01*
X136366666Y-74593809D02*
X136328571Y-74631904D01*
X136252380Y-74631904D01*
X136214285Y-74593809D01*
X136195238Y-74555714D01*
X136176190Y-74479523D01*
X136176190Y-74250952D01*
X136195238Y-74174761D01*
X136214285Y-74136666D01*
X136252380Y-74098571D01*
X136328571Y-74098571D01*
X136366666Y-74136666D01*
X136500000Y-74936666D02*
X136519047Y-74898571D01*
X136557142Y-74784285D01*
X136576190Y-74708095D01*
X136595238Y-74593809D01*
X136614285Y-74403333D01*
X136614285Y-74250952D01*
X136595238Y-74060476D01*
X136576190Y-73946190D01*
X136557142Y-73870000D01*
X136519047Y-73755714D01*
X136500000Y-73717619D01*
X137090476Y-74593809D02*
X137147619Y-74631904D01*
X137242857Y-74631904D01*
X137280952Y-74593809D01*
X137300000Y-74555714D01*
X137319047Y-74479523D01*
X137319047Y-74403333D01*
X137300000Y-74327142D01*
X137280952Y-74289047D01*
X137242857Y-74250952D01*
X137166666Y-74212857D01*
X137128571Y-74174761D01*
X137109523Y-74136666D01*
X137090476Y-74060476D01*
X137090476Y-73984285D01*
X137109523Y-73908095D01*
X137128571Y-73870000D01*
X137166666Y-73831904D01*
X137261904Y-73831904D01*
X137319047Y-73870000D01*
X137490476Y-74631904D02*
X137490476Y-73831904D01*
X137585714Y-73831904D01*
X137642857Y-73870000D01*
X137680952Y-73946190D01*
X137700000Y-74022380D01*
X137719047Y-74174761D01*
X137719047Y-74289047D01*
X137700000Y-74441428D01*
X137680952Y-74517619D01*
X137642857Y-74593809D01*
X137585714Y-74631904D01*
X137490476Y-74631904D01*
X138080952Y-74631904D02*
X137890476Y-74631904D01*
X137890476Y-73831904D01*
X138709523Y-74631904D02*
X138519047Y-74631904D01*
X138519047Y-73831904D01*
X138785714Y-74098571D02*
X138938095Y-74098571D01*
X138842857Y-73831904D02*
X138842857Y-74517619D01*
X138861904Y-74593809D01*
X138900000Y-74631904D01*
X138938095Y-74631904D01*
X139242857Y-74631904D02*
X139242857Y-73831904D01*
X139242857Y-74593809D02*
X139204761Y-74631904D01*
X139128571Y-74631904D01*
X139090476Y-74593809D01*
X139071428Y-74555714D01*
X139052380Y-74479523D01*
X139052380Y-74250952D01*
X139071428Y-74174761D01*
X139090476Y-74136666D01*
X139128571Y-74098571D01*
X139204761Y-74098571D01*
X139242857Y-74136666D01*
X139719047Y-73908095D02*
X139738095Y-73870000D01*
X139776190Y-73831904D01*
X139871428Y-73831904D01*
X139909523Y-73870000D01*
X139928571Y-73908095D01*
X139947619Y-73984285D01*
X139947619Y-74060476D01*
X139928571Y-74174761D01*
X139700000Y-74631904D01*
X139947619Y-74631904D01*
X140195238Y-73831904D02*
X140233333Y-73831904D01*
X140271428Y-73870000D01*
X140290476Y-73908095D01*
X140309523Y-73984285D01*
X140328571Y-74136666D01*
X140328571Y-74327142D01*
X140309523Y-74479523D01*
X140290476Y-74555714D01*
X140271428Y-74593809D01*
X140233333Y-74631904D01*
X140195238Y-74631904D01*
X140157142Y-74593809D01*
X140138095Y-74555714D01*
X140119047Y-74479523D01*
X140100000Y-74327142D01*
X140100000Y-74136666D01*
X140119047Y-73984285D01*
X140138095Y-73908095D01*
X140157142Y-73870000D01*
X140195238Y-73831904D01*
X140709523Y-74631904D02*
X140480952Y-74631904D01*
X140595238Y-74631904D02*
X140595238Y-73831904D01*
X140557142Y-73946190D01*
X140519047Y-74022380D01*
X140480952Y-74060476D01*
X140938095Y-74174761D02*
X140900000Y-74136666D01*
X140880952Y-74098571D01*
X140861904Y-74022380D01*
X140861904Y-73984285D01*
X140880952Y-73908095D01*
X140900000Y-73870000D01*
X140938095Y-73831904D01*
X141014285Y-73831904D01*
X141052380Y-73870000D01*
X141071428Y-73908095D01*
X141090476Y-73984285D01*
X141090476Y-74022380D01*
X141071428Y-74098571D01*
X141052380Y-74136666D01*
X141014285Y-74174761D01*
X140938095Y-74174761D01*
X140900000Y-74212857D01*
X140880952Y-74250952D01*
X140861904Y-74327142D01*
X140861904Y-74479523D01*
X140880952Y-74555714D01*
X140900000Y-74593809D01*
X140938095Y-74631904D01*
X141014285Y-74631904D01*
X141052380Y-74593809D01*
X141071428Y-74555714D01*
X141090476Y-74479523D01*
X141090476Y-74327142D01*
X141071428Y-74250952D01*
X141052380Y-74212857D01*
X141014285Y-74174761D01*
G04 #@! TD*
M02*
