M48
;DRILL file {KiCad 5.0.1-33cea8e~68~ubuntu18.04.1} date Sun 10 Feb 2019 11:00:53 GMT
;FORMAT={-:-/ absolute / inch / decimal}
FMAT,2
INCH,TZ
T1C0.0118
T2C0.0394
%
G90
G05
M72
T1
X3.1496Y-2.7559
X3.1496Y-2.8543
X3.1496Y-2.9528
X3.1496Y-3.0512
X3.1496Y-3.1496
X3.1496Y-3.248
X3.1496Y-3.3465
X3.1496Y-3.4449
X3.1496Y-3.5433
X3.1496Y-3.6417
X3.1496Y-3.7402
X3.1496Y-3.8386
X3.1496Y-3.937
X3.1496Y-4.0354
X3.1496Y-4.1339
X3.1496Y-4.2323
X3.248Y-2.7559
X3.248Y-2.8543
X3.248Y-2.9528
X3.248Y-3.0512
X3.248Y-3.1496
X3.248Y-3.248
X3.248Y-3.3465
X3.248Y-3.4449
X3.248Y-3.5433
X3.248Y-3.6417
X3.248Y-3.7402
X3.248Y-3.8386
X3.248Y-3.937
X3.248Y-4.0354
X3.248Y-4.1339
X3.248Y-4.2323
X3.3465Y-2.8543
X3.3465Y-2.9528
X3.3465Y-3.0512
X3.3465Y-3.1496
X3.3465Y-3.248
X3.3465Y-3.3465
X3.3465Y-3.4449
X3.3465Y-3.5433
X3.3465Y-3.6417
X3.3465Y-3.7402
X3.3465Y-3.8386
X3.3465Y-3.937
X3.3465Y-4.0354
X3.3465Y-4.1339
X3.3465Y-4.2323
X3.4449Y-2.6575
X3.4449Y-2.8543
X3.4449Y-2.9528
X3.4449Y-3.0512
X3.4449Y-3.1496
X3.4449Y-3.248
X3.4449Y-3.3465
X3.4449Y-3.4449
X3.4449Y-3.5433
X3.4449Y-3.6417
X3.4449Y-3.7402
X3.4449Y-3.8386
X3.4449Y-3.937
X3.4449Y-4.0354
X3.4449Y-4.1339
X3.4449Y-4.2323
X3.4449Y-4.3307
X3.4449Y-4.4291
X3.4449Y-4.5276
X3.5433Y-2.6575
X3.5433Y-2.9528
X3.5433Y-3.0512
X3.5433Y-3.1496
X3.5433Y-3.248
X3.5433Y-3.3465
X3.5433Y-3.4449
X3.5433Y-3.5433
X3.5433Y-3.6417
X3.5433Y-3.7402
X3.5433Y-3.8386
X3.5433Y-3.937
X3.5433Y-4.0354
X3.5433Y-4.1339
X3.5433Y-4.2323
X3.5433Y-4.3307
X3.5433Y-4.4291
X3.5433Y-4.5276
X3.6417Y-2.6575
X3.6417Y-2.9528
X3.6417Y-3.0512
X3.6417Y-3.1496
X3.6417Y-3.248
X3.6417Y-3.3465
X3.6417Y-3.4449
X3.6417Y-3.5433
X3.6417Y-3.6417
X3.6417Y-3.7402
X3.6417Y-3.8386
X3.6417Y-3.937
X3.6417Y-4.0354
X3.6417Y-4.1339
X3.6417Y-4.2323
X3.6417Y-4.3307
X3.6417Y-4.4291
X3.6417Y-4.5276
X3.7402Y-2.6575
X3.7402Y-2.9528
X3.7402Y-3.0512
X3.7402Y-3.1496
X3.7402Y-3.248
X3.7402Y-3.3465
X3.7402Y-3.4449
X3.7402Y-3.5433
X3.7402Y-3.6417
X3.7402Y-3.7402
X3.7402Y-3.8386
X3.7402Y-3.937
X3.7402Y-4.0354
X3.7402Y-4.1339
X3.7402Y-4.2323
X3.7402Y-4.3307
X3.7402Y-4.4291
X3.7402Y-4.5276
X3.8386Y-2.6575
X3.8386Y-2.9528
X3.8386Y-3.0512
X3.8386Y-3.1496
X3.8386Y-3.248
X3.8386Y-3.3465
X3.8386Y-3.4449
X3.8386Y-3.5433
X3.8386Y-3.6417
X3.8386Y-3.7402
X3.8386Y-3.8386
X3.8386Y-3.937
X3.8386Y-4.0354
X3.8386Y-4.1339
X3.8386Y-4.2323
X3.8386Y-4.3307
X3.8386Y-4.4291
X3.8386Y-4.5276
X3.937Y-2.6575
X3.937Y-2.8543
X3.937Y-2.9528
X3.937Y-3.0512
X3.937Y-3.1496
X3.937Y-3.248
X3.937Y-3.3465
X3.937Y-3.4449
X3.937Y-3.5433
X3.937Y-3.6417
X3.937Y-3.7402
X3.937Y-3.8386
X3.937Y-3.937
X3.937Y-4.0354
X3.937Y-4.1339
X3.937Y-4.2323
X3.937Y-4.3307
X3.937Y-4.4291
X3.937Y-4.5276
X4.0354Y-2.6575
X4.0354Y-2.8543
X4.0354Y-2.9528
X4.0354Y-3.0512
X4.0354Y-3.1496
X4.0354Y-3.248
X4.0354Y-3.3465
X4.0354Y-3.4449
X4.0354Y-3.5433
X4.0354Y-3.6417
X4.0354Y-3.7402
X4.0354Y-3.8386
X4.0354Y-3.937
X4.0354Y-4.0354
X4.0354Y-4.1339
X4.0354Y-4.2323
X4.0354Y-4.3307
X4.0354Y-4.4291
X4.0354Y-4.5276
X4.1339Y-2.6575
X4.1339Y-2.8543
X4.1339Y-2.9528
X4.1339Y-3.0512
X4.1339Y-3.1496
X4.1339Y-3.248
X4.1339Y-3.3465
X4.1339Y-3.4449
X4.1339Y-3.5433
X4.1339Y-3.6417
X4.1339Y-3.7402
X4.1339Y-3.8386
X4.1339Y-3.937
X4.1339Y-4.0354
X4.1339Y-4.1339
X4.1339Y-4.2323
X4.1339Y-4.3307
X4.1339Y-4.4291
X4.1339Y-4.5276
X4.2323Y-2.6575
X4.2323Y-2.8543
X4.2323Y-2.9528
X4.2323Y-3.0512
X4.2323Y-3.1496
X4.2323Y-3.248
X4.2323Y-3.3465
X4.2323Y-3.4449
X4.2323Y-3.5433
X4.2323Y-3.6417
X4.2323Y-3.7402
X4.2323Y-3.8386
X4.2323Y-3.937
X4.2323Y-4.0354
X4.2323Y-4.1339
X4.2323Y-4.2323
X4.2323Y-4.3307
X4.2323Y-4.4291
X4.2323Y-4.5276
X4.287Y-3.8705
X4.3307Y-2.8543
X4.3307Y-2.9528
X4.3307Y-3.0512
X4.3307Y-3.1496
X4.3307Y-3.248
X4.3307Y-3.3465
X4.3307Y-3.4449
X4.3307Y-3.5433
X4.3307Y-3.6417
X4.3307Y-3.7402
X4.3307Y-3.8386
X4.3307Y-3.937
X4.3307Y-4.0354
X4.3307Y-4.1339
X4.3307Y-4.2323
X4.3307Y-4.3307
X4.3307Y-4.4291
X4.3307Y-4.5276
X4.4291Y-2.8543
X4.4291Y-2.9528
X4.4291Y-3.0512
X4.4291Y-3.1496
X4.4291Y-3.248
X4.4291Y-3.3465
X4.4291Y-3.4449
X4.4291Y-3.5433
X4.4291Y-3.6417
X4.4291Y-3.7402
X4.4291Y-3.8386
X4.4291Y-3.937
X4.4291Y-4.0354
X4.4291Y-4.1339
X4.4291Y-4.2323
X4.4291Y-4.3307
X4.4291Y-4.4291
X4.4291Y-4.5276
X4.5242Y-3.0634
X4.5276Y-3.1496
X4.5276Y-3.248
X4.5276Y-3.3465
X4.5323Y-3.4563
X4.5323Y-3.5512
X4.5335Y-4.1929
X4.5335Y-4.2421
X4.5335Y-4.2913
X4.5335Y-4.3406
X4.5335Y-4.3898
X4.5335Y-4.439
X4.5335Y-4.4882
X4.5579Y-3.5614
X4.5768Y-3.065
X4.5819Y-3.5512
X4.5933Y-4.2409
X4.6043Y-4.0945
X4.6067Y-3.0665
X4.6071Y-3.8703
X4.6083Y-3.5658
X4.628Y-4.0709
X4.6283Y-3.5512
X4.6516Y-3.7098
X4.6555Y-4.0433
X4.6587Y-3.0654
X4.6717Y-3.4579
X4.6791Y-4.0197
X4.7028Y-3.9961
X4.7035Y-3.5512
X4.7244Y-2.6575
X4.7244Y-2.7559
X4.7244Y-2.8543
X4.7244Y-2.9528
X4.7244Y-3.0512
X4.7244Y-3.1496
X4.7244Y-3.248
X4.7244Y-3.3465
X4.7264Y-3.9724
X4.7303Y-4.0551
X4.7303Y-4.0945
X4.7303Y-4.3043
X4.7378Y-3.5516
X4.75Y-3.9488
X4.75Y-4.1929
X4.75Y-4.2323
X4.7512Y-3.4575
X4.7697Y-4.0157
X4.7697Y-4.0551
X4.7697Y-4.3043
X4.7894Y-4.1929
X4.7894Y-4.2323
X4.8091Y-3.9764
X4.8091Y-4.0157
X4.8091Y-4.0551
X4.8091Y-4.3043
X4.8228Y-2.6575
X4.8228Y-2.7559
X4.8228Y-2.8543
X4.8228Y-2.9528
X4.8228Y-3.0512
X4.8228Y-3.1496
X4.8228Y-3.248
X4.8228Y-3.3465
X4.8291Y-3.5551
X4.8295Y-3.4559
X4.8366Y-4.3457
X4.9079Y-3.4575
X4.9079Y-3.5551
X4.9213Y-2.6575
X4.9213Y-2.7559
X4.9213Y-2.8543
X4.9213Y-2.9528
X4.9213Y-3.0512
X4.9213Y-3.1496
X4.9213Y-3.248
X4.9213Y-3.3465
X4.9291Y-3.8634
X4.9433Y-3.5535
X4.9476Y-3.6457
X4.987Y-3.4587
X5.0185Y-3.5551
X5.0197Y-2.6575
X5.0197Y-2.7559
X5.0197Y-2.8543
X5.0197Y-2.9528
X5.0197Y-3.0512
X5.0197Y-3.1496
X5.0197Y-3.248
X5.0197Y-3.3465
X5.0256Y-4.1437
X5.0256Y-4.1929
X5.0256Y-4.2421
X5.0256Y-4.2913
X5.0256Y-4.3406
X5.0256Y-4.3898
X5.0256Y-4.439
X5.0661Y-3.4571
X5.0705Y-4.511
X5.1181Y-2.6575
X5.1181Y-2.7559
X5.1181Y-2.8543
X5.1181Y-2.9528
X5.1181Y-3.0512
X5.1181Y-3.1496
X5.1181Y-3.248
X5.1181Y-3.3465
X5.124Y-3.6024
X5.1378Y-3.4563
X5.1604Y-4.4833
X5.1614Y-4.5394
X5.1728Y-4.511
X5.1841Y-4.4596
X5.1975Y-4.5241
X5.2077Y-4.436
X5.2165Y-2.6575
X5.2165Y-2.7559
X5.2165Y-2.8543
X5.2165Y-2.9528
X5.2165Y-3.0512
X5.2165Y-3.1496
X5.2165Y-3.248
X5.2165Y-3.3465
X5.2165Y-3.4449
X5.2165Y-3.5433
X5.2165Y-3.6417
X5.2165Y-3.7402
X5.2165Y-3.8386
X5.2165Y-3.937
X5.2211Y-4.5006
X5.2313Y-4.4124
X5.2447Y-4.477
X5.2549Y-4.3888
X5.2683Y-4.4533
X5.2785Y-4.3652
X5.2791Y-4.3346
X5.2919Y-4.4297
X5.315Y-3.0512
X5.315Y-3.1496
X5.315Y-3.248
X5.315Y-3.3465
X5.315Y-3.4449
X5.315Y-3.5433
X5.315Y-3.6417
X5.315Y-3.7402
X5.315Y-3.8386
X5.315Y-3.937
X5.3156Y-4.4061
X5.3346Y-4.3346
X5.3346Y-4.3661
X5.4134Y-3.0512
X5.4134Y-3.1496
X5.4134Y-3.248
X5.4134Y-3.3465
X5.4134Y-3.4449
X5.4134Y-3.5433
X5.4134Y-3.6417
X5.4134Y-3.7402
X5.4134Y-3.8386
X5.4134Y-3.937
X5.5118Y-3.0512
X5.5118Y-3.1496
X5.5118Y-3.248
X5.5118Y-3.3465
X5.5118Y-3.4449
X5.5118Y-3.5433
X5.5118Y-3.6417
X5.5118Y-3.7402
X5.5118Y-3.8386
X5.5118Y-3.937
X5.5118Y-4.0354
X5.5118Y-4.1339
X5.5118Y-4.2323
X5.6102Y-3.0512
X5.6102Y-3.1496
X5.6102Y-3.248
X5.6102Y-3.3465
X5.6102Y-3.4449
X5.6102Y-3.5433
X5.6102Y-3.6417
X5.6102Y-3.7402
X5.6102Y-3.8386
X5.6102Y-3.937
X5.6102Y-4.0354
X5.6102Y-4.1339
X5.6102Y-4.2323
X4.7329Y-3.7305
X4.7329Y-3.7679
X4.7329Y-3.8053
X4.7329Y-3.8427
X4.7703Y-3.7305
X4.7703Y-3.7679
X4.7703Y-3.8053
X4.7703Y-3.8427
X4.8077Y-3.7305
X4.8077Y-3.7679
X4.8077Y-3.8053
X4.8077Y-3.8427
X4.8451Y-3.7305
X4.8451Y-3.7679
X4.8451Y-3.8053
X4.8451Y-3.8427
T2
X3.4209Y-2.4831
X3.4209Y-2.5831
X3.5209Y-2.4831
X3.5209Y-2.5831
X3.6209Y-2.4831
X3.6209Y-2.5831
X3.7209Y-2.4831
X3.7209Y-2.5831
X3.8209Y-2.4831
X3.8209Y-2.5831
X3.9209Y-2.4831
X3.9209Y-2.5831
X4.0209Y-2.4831
X4.0209Y-2.5831
X4.1209Y-2.4831
X4.1209Y-2.5831
X4.2209Y-2.4831
X4.2209Y-2.5831
X4.3209Y-2.4831
X4.3209Y-2.5831
X4.4209Y-2.4831
X4.4209Y-2.5831
X4.5209Y-2.4831
X4.5209Y-2.5831
X4.6209Y-2.4831
X4.6209Y-2.5831
X4.7209Y-2.4831
X4.7209Y-2.5831
X4.8209Y-2.4831
X4.8209Y-2.5831
X4.9209Y-2.4831
X4.9209Y-2.5831
X5.0209Y-2.4831
X5.0209Y-2.5831
X5.1209Y-2.4831
X5.1209Y-2.5831
X5.2209Y-2.4831
X5.2209Y-2.5831
X5.3209Y-2.4831
X5.3209Y-2.5831
T0
M30
